<?xml version="1.0" encoding="utf-8"?>
<!-- Generator: Adobe Illustrator 23.0.6, SVG Export Plug-In . SVG Version: 6.00 Build 0)  -->
<svg version="1.1" xmlns="http://www.w3.org/2000/svg" xmlns:xlink="http://www.w3.org/1999/xlink" x="0px" y="0px"
	 viewBox="0 0 30 30" style="enable-background:new 0 0 30 30;" xml:space="preserve">
<style type="text/css">
	.st0{display:none;}
	.st1{display:inline;fill:#0478B8;}
	.st2{display:inline;fill:#FFFFFF;}
	.st3{display:inline;}
	.st4{fill:#0478B8;}
	.st5{fill:#FFFFFF;}
</style>
<g id="Calque_6" class="st0">
	<path class="st1" d="M28.6,21.3c0,0-0.1,0-0.1-0.1c-0.6-0.2-1.1-0.5-1.7-0.7c-1.2-0.5-2.3-1.1-3.5-1.6c0,0,0,0,0,0
		c-0.2-0.1-0.3-0.1-0.5-0.2c-0.5-0.2-0.9-0.3-1.4-0.1c-0.2,0.1-0.5,0.2-0.7,0.3c-0.2,0.2-0.5,0.4-0.7,0.6c0,0,0,0,0,0
		c-0.2,0.1-0.3,0.3-0.5,0.4c0,0,0,0,0,0c-0.1,0.1-0.3,0.3-0.4,0.4c-0.2,0.1-0.4,0.2-0.6,0.1c-1.2-0.3-2.3-0.8-3.3-1.5c0,0,0,0,0,0
		c0,0,0,0,0,0c0,0,0,0-0.1,0c-0.4-0.3-0.8-0.5-1.2-0.8c-1.6-1.3-3.1-2.5-4.2-4.1c-0.3-0.5-0.6-1-0.9-1.6c-0.1-0.2-0.2-0.5,0-0.7
		c0,0,0,0,0,0c0.2-0.2,0.4-0.3,0.6-0.5c0,0,0,0,0,0c0.2-0.2,0.4-0.3,0.6-0.5c0,0,0,0,0,0c0.2-0.2,0.4-0.3,0.6-0.5c0,0,0,0,0,0
		c0,0,0.1-0.1,0.1-0.1c0.7-0.7,0.8-1.4,0.3-2.2c-0.1-0.2-0.2-0.4-0.4-0.6c0,0,0,0,0,0C9.9,6.3,9.2,5.4,8.6,4.5
		C8.2,3.9,7.8,3.4,7.4,2.8C7.2,2.4,6.8,2.1,6.3,2C5.8,2,5.4,2.1,5,2.5C4.1,3.2,3.2,4,2.4,4.7c-0.5,0.5-1,0.9-1.5,1.4
		C0,6.9-0.1,7.8,0.1,8.8c0.1,0.4,0.1,0.9,0.3,1.3c0.2,0.7,0.4,1.3,0.7,1.9c0,0,0,0,0,0c0,0,0.1,0.1,0.1,0.1c0.6,1.3,1.3,2.5,2.2,3.6
		c0.5,0.7,1.1,1.4,1.7,2.1c0,0,0,0,0,0c0.3,0.3,0.6,0.7,0.9,1c0,0,0,0,0,0C5.9,19,6,19.1,6.1,19.1c1.2,1,2.3,2.1,3.5,3.1
		c1.7,1.3,3.4,2.4,5.3,3.5c0,0,0.1,0,0.1,0.1c1.1,0.4,2.1,0.9,3.2,1.3c1.6,0.6,3.2,0.9,4.9,0.9c0.1,0,0.2,0,0.3,0c0.2,0,0.3,0,0.5,0
		c0.7-0.1,1.3-0.5,1.7-1c0.8-0.7,1.7-1.4,2.5-2.2c0.1-0.1,0.3-0.2,0.4-0.3c0,0,0,0,0,0c0.1-0.1,0.1-0.1,0.2-0.2
		c0.3-0.2,0.6-0.5,0.8-0.7c0.2-0.2,0.3-0.4,0.4-0.6c0.2-0.5-0.1-0.8-0.4-1.2c0,0,0,0,0,0C29.2,21.7,28.9,21.5,28.6,21.3z"/>
</g>
<g id="Calque_10" class="st0">
	<path class="st2" d="M15.3,5C9.6,4.8,5.1,9.4,5,14.7C4.8,20.4,9.4,24.9,14.7,25C20.5,25.1,25,20.5,25,15C25,9.6,20.6,5.1,15.3,5z
		 M20.3,13.1c-1.9,1.9-3.8,3.8-5.7,5.7c-0.3,0.3-0.6,0.4-1,0.4c-0.4,0-0.7-0.1-1-0.4c-1-1-1.9-1.9-2.8-2.9c-0.6-0.6-0.6-1.5,0-2
		c0.6-0.6,1.5-0.6,2,0c0.6,0.5,1.1,1.1,1.7,1.7c0.1,0.1,0.2,0.2,0.3,0c1.5-1.5,3-3,4.5-4.5c0.8-0.8,2-0.5,2.4,0.5
		C20.8,12.2,20.7,12.7,20.3,13.1z"/>
</g>
<g id="Calque_15" class="st0">
	<path class="st2" d="M11.6,10.7c0.9,0,1.8,0,2.6,0c0.1,0,0.2-0.1,0.2-0.2c0-0.4,0-0.8,0-1.2c0-0.4,0.2-0.6,0.5-0.6
		c0.4,0,0.5,0.2,0.5,0.6c0,0.4,0,0.8,0,1.2c0,0.2,0.1,0.3,0.3,0.3c0.8,0,1.5,0,2.3,0c0.2,0,0.3-0.1,0.3-0.3c0-0.4,0-0.8,0-1.1
		c0-0.4,0.2-0.6,0.5-0.6c0.4,0,0.5,0.2,0.5,0.6c0,0.3,0,0.7,0,1c0,0.1,0,0.2,0,0.3c0.4,0,0.7,0,1.1,0.1c1.4,0.2,2.2,1.2,2.2,2.5
		c0,1.1,0,2.2,0,3.3c0,0.2,0.1,0.3,0.3,0.4c1.1,0.3,1.9,1.3,1.9,2.4c0,1.7,0,3.4,0,5c0,0.4-0.2,0.6-0.6,0.6c-6.2,0-12.5,0-18.7,0
		C5.2,25,5,24.8,5,24.4c0-1.7,0-3.4,0-5.1c0-1.1,0.8-2,1.9-2.3c0.3-0.1,0.3-0.2,0.3-0.4c0-1.1,0-2.2,0-3.3c0-1.5,1.2-2.6,2.8-2.6
		c0.5,0,0.5,0,0.5-0.5c0-0.4,0-0.7,0-1.1c0-0.3,0.2-0.5,0.5-0.5c0.3,0,0.6,0.2,0.6,0.5C11.6,9.7,11.6,10.1,11.6,10.7z M6.1,19.9
		c0,0.1,0,0.2,0,0.3c0,1.2,0,2.3,0,3.5C6.1,24,6.2,24,6.5,24c5.7,0,11.4,0,17.1,0c0.3,0,0.4-0.1,0.4-0.4c0-1.2,0-2.3,0-3.5
		c0-0.1,0-0.2,0-0.3c-0.6,0-1,0.2-1.4,0.5c-0.5,0.3-1,0.5-1.6,0.5c-0.6,0-1.1-0.4-1.6-0.7c-0.6-0.4-1.2-0.4-1.8-0.1
		c-0.4,0.2-0.9,0.5-1.3,0.6c-1.2,0.4-2.4,0.2-3.4-0.5c-0.8-0.5-1.5-0.5-2.2,0.1c0,0-0.1,0.1-0.1,0.1c-0.9,0.6-2,0.7-2.9,0
		C7.1,20.1,6.6,19.9,6.1,19.9z M8.3,16.8c0.2,0,0.3,0,0.5,0c4,0,8,0,12,0c0.9,0,0.9,0,0.9-0.8c0-0.4,0-0.9,0-1.3
		c-1,0.2-1.7-0.1-2.4-0.6c-0.1-0.1-0.2-0.1-0.3-0.2c-0.4-0.2-0.7-0.2-1.1,0c-0.3,0.1-0.6,0.3-0.9,0.4c-1,0.5-2.1,0.6-3.2,0.3
		c-0.5-0.1-0.9-0.4-1.4-0.6c-0.6-0.3-1.2-0.3-1.7,0.1c-0.7,0.5-1.5,0.9-2.4,0.6C8.3,15.4,8.3,16.1,8.3,16.8z"/>
	<path class="st2" d="M11.2,5.1c0.3,0.4,0.6,0.8,0.9,1.2c0.2,0.4,0.1,0.8-0.3,1.1c-0.4,0.3-0.9,0.3-1.3,0c-0.4-0.3-0.6-0.7-0.4-1.1
		C10.4,5.8,10.7,5.5,11,5C11.1,5,11.1,5,11.2,5.1z"/>
	<path class="st2" d="M18.8,5c0.5,0.5,0.9,0.8,1.1,1.3c0.1,0.4,0,0.8-0.4,1c-0.4,0.3-0.9,0.2-1.3,0c-0.4-0.3-0.5-0.7-0.3-1.1
		C18.2,5.8,18.5,5.4,18.8,5z"/>
	<path class="st2" d="M15.1,5.1c0.3,0.4,0.6,0.7,0.9,1.1c0.3,0.4,0.1,0.9-0.3,1.2c-0.4,0.3-0.9,0.3-1.4,0c-0.4-0.3-0.5-0.8-0.3-1.2
		c0.3-0.4,0.6-0.8,0.9-1.1C15,5,15,5.1,15.1,5.1z"/>
</g>
<g id="Calque_20" class="st0">
	<path class="st2" d="M21.1,23c0-6,0-10,0-16c-4.6,0-7.5,0-12.2,0c0,0.3,0-0.3,0,0c0,3.6,0,7.1,0,10.7c0,0.3,0,0.3-1.2,0.3
		C7,18,7,18,7,17.7C7,13.8,7,9.9,7,6C7,5.3,7.3,5,8.1,5c4.6,0,9.2,0,13.8,0C22.8,5,23,5.3,23,6.1c0,5.9,0,11.9,0,17.8
		c0,0.8-0.3,1.1-1.2,1.1c-4.6,0-9.1,0-13.7,0c-0.9,0-1.2-0.2-1.2-1.1c0.1-0.6,0-7.3,0-7.9c0.3,0,1.5,0,1.9,0c0,0.7,0,6.3,0,7
		C13.6,23,16.4,23,21.1,23z"/>
	<path class="st2" d="M19,12c-2.8,0-5.2,0-8,0v-2c1.4,0,3,0,4.4,0c1.3,0,2.2,0,3.6,0V12z"/>
	<path class="st2" d="M19,20c-2.8,0-5.2,0-8,0v-2c1.4,0,3,0,4.4,0c1.3,0,2.2,0,3.6,0V20z"/>
	<path class="st2" d="M19,16c-2.8,0-5.2,0-8,0v-2c1.4,0,3,0,4.4,0c1.3,0,2.2,0,3.6,0V16z"/>
</g>
<g id="Calque_45" class="st0">
	<path class="st1" d="M0.8,5.5c0.9,0,1.7,0,2.6,0.1c0.7,0,1,0.3,0.9,1C4.1,7.8,4,9,3.9,10.3c-0.1,0.7-0.4,1-1.1,1
		c-0.8,0-1.7,0-2.6,0c0-0.1,0-0.2,0-0.3c0.2-1.7,0.3-3.5,0.5-5.2C0.7,5.6,0.7,5.5,0.8,5.5C0.7,5.5,0.8,5.5,0.8,5.5z"/>
	<path class="st1" d="M29.4,24.3c-0.7,0-1.4,0-2.1,0c-0.2,0-0.4,0-0.6,0c-0.5,0-0.8-0.3-0.8-0.8c0.1-1.4,0.2-2.8,0.3-4.2
		c0-0.4,0.4-0.8,0.8-0.8c1,0,1.9,0,2.9,0C29.8,20.4,29.6,22.4,29.4,24.3C29.5,24.3,29.5,24.3,29.4,24.3z"/>
	<path class="st1" d="M16.7,12c-0.7,0.1-1.3,0.2-2,0.2c-0.9,0.1-1.8,0.2-2.7,0.4c-0.3,0-0.6,0.2-0.8,0.3c-0.6,0.3-1.1,0.4-1.7,0.3
		c-0.9-0.2-1.7-0.5-2.4-1c-0.4-0.3-0.9-0.4-1.5-0.4c-0.6,0-1-0.3-1-0.9c0-1.4,0-2.7,0.1-4.1c0-0.3,0.2-0.5,0.5-0.5
		c0.1,0,0.2,0,0.2,0c0.8,0.1,1.5-0.1,2.2-0.4c0.8-0.4,1.7-0.5,2.5-0.8c1.2-0.3,2.4-0.6,3.7-1c0.5-0.1,0.9-0.1,1.3,0
		c1.6,0.5,3.2,1.1,4.7,1.6c0.1,0,0.2,0.1,0.3,0.2c1.3,1.3,2.5,2.6,3.8,3.9c0.2,0.2,0.1,0.3,0,0.4c-0.3,0.3-0.8,0.3-1.1-0.1
		c-0.4-0.3-0.7-0.7-1.1-1c-0.5-0.5-1-1-1.5-1.5c-0.4-0.5-1-0.8-1.6-1.1c-0.3-0.1-0.6-0.3-0.9-0.4c0.1,0,0.1,0.1,0.2,0.1
		c1,0.5,1.8,1.2,2.5,2c0.4,0.6,0.9,1.1,1.4,1.6c0.2,0.2,0.1,0.3-0.1,0.4c-0.3,0.2-0.7,0.2-1-0.1c-0.8-0.7-1.6-1.4-2.4-2
		c-0.1-0.1-0.3-0.2-0.4-0.2c-0.7-0.1-1.4-0.3-2.1-0.4c-1.1-0.3-2.2,0-3.2,0.6c-0.6,0.4-1.2,0.8-1.7,1.2C9.9,10,9,10.3,8,10.1
		c0.6,0.5,1.3,0.6,2.1,0.3c0.9-0.3,1.6-0.8,2.3-1.3c0.7-0.4,1.4-0.9,2.2-1c0,0,0.1,0,0.1,0c-0.8,0.7-1.5,1.4-2.3,2.2
		c0.3-0.1,0.6-0.2,0.9-0.2c0.6,0,1.3-0.1,1.9,0C16.3,10.2,16.8,10.9,16.7,12z"/>
	<path class="st1" d="M15.5,21.8c0.7-0.7,1.5-1.4,2.2-2.1c-0.8,0.2-1.5,0.3-2.3,0.2c-0.3,0-0.5,0-0.8-0.1c-0.8-0.2-1.3-0.9-1.2-1.7
		c0-0.1,0.1-0.2,0.2-0.2c0.7-0.1,1.5-0.2,2.2-0.3c0.9-0.1,1.8-0.3,2.7-0.5c0.2,0,0.4-0.2,0.6-0.3c0.5-0.2,1-0.3,1.4-0.2
		c1.1,0.2,2,0.6,2.8,1.2c0.3,0.2,0.6,0.3,0.9,0.3c0.2,0,0.3,0,0.5,0c0.5,0,0.8,0.4,0.8,0.9c0,1.4,0,2.8-0.1,4.3
		c0,0.3-0.2,0.5-0.5,0.5c-0.5,0-0.9,0-1.4,0c-0.1,0-0.2,0-0.3,0.1c-0.8,0.5-1.7,0.8-2.6,1c-1.5,0.4-2.9,0.8-4.4,1.1
		c-0.5,0.1-0.9,0.1-1.3,0c-1.6-0.6-3.2-1.1-4.8-1.6c-0.1,0-0.2-0.1-0.3-0.2c-1.3-1.4-2.7-2.8-4-4.2c0,0,0,0,0,0
		c0.2-0.4,0.6-0.6,1-0.4c0.1,0.1,0.3,0.2,0.4,0.3c0.9,0.9,1.8,1.8,2.8,2.7c0.2,0.2,0.5,0.4,0.8,0.6c0.4,0.3,0.9,0.5,1.4,0.7
		c-0.1,0-0.1-0.1-0.2-0.1c-1.1-0.5-2-1.3-2.7-2.2c-0.4-0.5-0.9-1-1.3-1.6c-0.2-0.2-0.1-0.3,0.1-0.4c0.3-0.2,0.7-0.2,1,0.1
		c0.8,0.7,1.6,1.4,2.4,2.1c0.1,0.1,0.3,0.2,0.5,0.2c0.6,0.1,1.3,0.2,1.9,0.4c1.3,0.4,2.5,0,3.6-0.7c0.4-0.3,0.9-0.6,1.3-0.9
		c0.9-0.6,1.8-1.1,3-0.7c-0.5-0.5-1.3-0.6-2-0.4c-0.8,0.2-1.4,0.7-2,1.1c-0.6,0.4-1.3,0.8-2,1.1C16,21.8,15.8,21.8,15.5,21.8
		C15.5,21.8,15.5,21.8,15.5,21.8z"/>
	<path class="st1" d="M29.9,17.9c-0.8,0-1.5,0-2.2,0c-0.2,0-0.4,0-0.7,0c-0.3,0.1-0.5,0.2-0.8,0.3c0-0.2,0-0.5,0.1-0.8
		c0.1-0.3,0.4-0.6,0.7-0.6c1,0,1.9,0,2.9,0C30,17.1,29.9,17.5,29.9,17.9z"/>
	<path class="st1" d="M0,13c0-0.4,0.1-0.8,0.1-1.2c0.6,0,1.3,0,1.9,0c0.2,0,0.4,0,0.6,0c0.5,0,0.6,0,1.1-0.3c0,0.3,0,0.6-0.1,0.8
		C3.6,12.7,3.2,13,2.8,13C1.9,13,1,13,0,13z"/>
	<path class="st1" d="M9.8,23.9c-0.8-0.3-1.7-0.6-2.3-1.2c-0.6-0.5-1.2-0.9-1.8-1.4c-0.2-0.2-0.2-0.3,0-0.5c0.3-0.2,0.7-0.2,1,0.1
		c0.6,0.5,1.1,1,1.6,1.5C8.8,22.9,9.3,23.4,9.8,23.9z"/>
	<path class="st1" d="M20.5,6c0.6,0.3,1.2,0.5,1.7,0.9C23,7.4,23.7,8,24.5,8.6c0.2,0.2,0.2,0.4-0.1,0.6c-0.3,0.1-0.6,0.1-0.9-0.2
		c-0.6-0.6-1.2-1.1-1.8-1.7C21.3,7,21,6.6,20.6,6.3C20.5,6.2,20.5,6.2,20.5,6C20.4,6.1,20.4,6,20.5,6z"/>
</g>
<g id="Calque_40" class="st0">
	<g class="st3">
		<path class="st4" d="M23.3,12.6c-1.5-0.4-2.8-1-3.9-2.1c-1.2-1.2-2-2.6-2.3-4.3c-0.2-0.9-0.2-1.7-0.1-2.6c0-0.2,0-0.2-0.2-0.3
			c-1.1-0.6-2.3-1-3.5-1.3c-0.4-0.1-0.8-0.1-1.2-0.2c0.6-0.6,1.3-0.9,2.1-1.2C15.5,0.1,16.7,0,18,0.1c1.6,0.2,3.1,0.6,4.5,1.4
			c0,0,0.1,0,0.1,0.1c-1,1.1-1.5,2.3-1.2,3.7c0.1,1,0.6,1.8,1.4,2.4c1.5,1.2,3.9,1.3,5.7-0.5c0.7,1.3,1.2,2.6,1.5,4
			c0.3,1.4,0.2,2.9-0.3,4.3c-0.3,0.8-0.7,1.6-1.3,2.2c0,0-0.1,0.1-0.1,0.1c0,0,0,0-0.1,0.1c0,0,0-0.1,0-0.1c-0.1-1.5-0.6-3-1.2-4.3
			c-0.1-0.2-0.2-0.4-0.3-0.6c0-0.1-0.1-0.1-0.2-0.1c-0.1,0-0.3,0-0.4,0C25.3,12.8,24,12.8,23.3,12.6z"/>
		<path class="st4" d="M22.8,2.2c1.1-1.4,2.9-1.9,4.5-1.2c1,0.5,1.7,1.3,1.9,2.5c0.2,1.2-0.1,2.2-1,3.1c-0.8,0.9-1.9,1.3-3.1,1.2
			c-2-0.2-3.4-2.1-2.9-4.2C22.2,3.1,22.5,2.6,22.8,2.2z"/>
	</g>
	<g class="st3">
		<path class="st4" d="M6.7,17.4c1.5,0.4,2.8,1,3.9,2.1c1.2,1.2,2,2.6,2.3,4.3c0.2,0.9,0.2,1.7,0.1,2.6c0,0.2,0,0.2,0.2,0.3
			c1.1,0.6,2.3,1,3.5,1.3c0.4,0.1,0.8,0.1,1.2,0.2c-0.6,0.6-1.3,0.9-2.1,1.2c-1.2,0.5-2.4,0.6-3.7,0.5c-1.6-0.2-3.1-0.6-4.5-1.4
			c0,0-0.1,0-0.1-0.1c1-1.1,1.5-2.3,1.2-3.7c-0.1-1-0.6-1.8-1.4-2.4c-1.5-1.2-3.9-1.3-5.7,0.5c-0.7-1.3-1.2-2.6-1.5-4
			c-0.3-1.4-0.2-2.9,0.3-4.3c0.3-0.8,0.7-1.6,1.3-2.2c0,0,0.1-0.1,0.1-0.1c0,0,0,0,0.1-0.1c0,0,0,0.1,0,0.1c0.1,1.5,0.6,3,1.2,4.3
			c0.1,0.2,0.2,0.4,0.3,0.6c0,0.1,0.1,0.1,0.2,0.1c0.1,0,0.3,0,0.4,0C4.7,17.2,6,17.2,6.7,17.4z"/>
		<path class="st4" d="M7.2,27.8c-1.1,1.4-2.9,1.9-4.5,1.2c-1-0.5-1.7-1.3-1.9-2.5c-0.2-1.2,0.1-2.2,1-3.1c0.8-0.9,1.9-1.3,3.1-1.2
			c2,0.2,3.4,2.1,2.9,4.2C7.8,26.9,7.5,27.4,7.2,27.8z"/>
	</g>
	<g class="st3">
		<path class="st4" d="M17.4,23.3c0.4-1.5,1-2.8,2.1-3.9c1.2-1.2,2.6-2,4.3-2.3c0.9-0.2,1.7-0.2,2.6-0.1c0.2,0,0.2,0,0.3-0.2
			c0.6-1.1,1-2.3,1.3-3.5c0.1-0.4,0.1-0.8,0.2-1.2c0.6,0.6,0.9,1.3,1.2,2.1c0.5,1.2,0.6,2.4,0.5,3.7c-0.2,1.6-0.6,3.1-1.4,4.5
			c0,0,0,0.1-0.1,0.1c-1.1-1-2.3-1.5-3.7-1.2c-1,0.1-1.8,0.6-2.4,1.4c-1.2,1.5-1.3,3.9,0.5,5.7c-1.3,0.7-2.6,1.2-4,1.5
			c-1.4,0.3-2.9,0.2-4.3-0.3c-0.8-0.3-1.6-0.7-2.2-1.3c0,0-0.1-0.1-0.1-0.1c0,0,0,0-0.1-0.1c0,0,0.1,0,0.1,0c1.5-0.1,3-0.6,4.3-1.2
			c0.2-0.1,0.4-0.2,0.6-0.3c0.1,0,0.1-0.1,0.1-0.2c0-0.1,0-0.3,0-0.4C17.2,25.3,17.2,24,17.4,23.3z"/>
		<path class="st4" d="M27.8,22.8c1.4,1.1,1.9,2.9,1.2,4.5c-0.5,1-1.3,1.7-2.5,1.9c-1.2,0.2-2.2-0.1-3.1-1c-0.9-0.8-1.3-1.9-1.2-3.1
			c0.2-2,2.1-3.4,4.2-2.9C26.9,22.2,27.4,22.5,27.8,22.8z"/>
	</g>
	<g class="st3">
		<path class="st4" d="M12.6,6.7c-0.4,1.5-1,2.8-2.1,3.9c-1.2,1.2-2.6,2-4.3,2.3c-0.9,0.2-1.7,0.2-2.6,0.1c-0.2,0-0.2,0-0.3,0.2
			c-0.6,1.1-1,2.3-1.3,3.5c-0.1,0.4-0.1,0.8-0.2,1.2c-0.6-0.6-0.9-1.3-1.2-2.1C0.1,14.5,0,13.3,0.1,12C0.3,10.4,0.7,9,1.5,7.6
			c0,0,0-0.1,0.1-0.1c1.1,1,2.3,1.5,3.7,1.2c1-0.1,1.8-0.6,2.4-1.4C8.9,5.9,9,3.4,7.2,1.6c1.3-0.7,2.6-1.2,4-1.5
			C12.6-0.1,14,0,15.4,0.4c0.8,0.3,1.6,0.7,2.2,1.3c0,0,0.1,0.1,0.1,0.1c0,0,0,0,0.1,0.1c0,0-0.1,0-0.1,0c-1.5,0.1-3,0.6-4.3,1.2
			c-0.2,0.1-0.4,0.2-0.6,0.3c-0.1,0-0.1,0.1-0.1,0.2c0,0.1,0,0.3,0,0.4C12.8,4.7,12.8,6,12.6,6.7z"/>
		<path class="st4" d="M2.2,7.2C0.7,6.1,0.2,4.3,0.9,2.8c0.5-1,1.3-1.7,2.5-1.9c1.2-0.2,2.2,0.1,3.1,1C7.4,2.7,7.8,3.8,7.7,5
			C7.6,7,5.6,8.4,3.6,7.9C3.1,7.8,2.6,7.5,2.2,7.2z"/>
	</g>
</g>
<g id="Calque_21" class="st0">
	<path class="st2" d="M15.4,5c0.1,0,0.3,0,0.4,0c0.7,0.1,1.4,0.2,2,0.6c0.4,0.2,0.8,0.5,1,1C19,6.9,19,7.2,19,7.4c0,0.8,0,1.5,0,2.3
		c0,0.1,0,0.1,0.1,0.1c0.1,0,0.2,0,0.2,0.1c0.4,0.2,0.6,0.5,0.6,0.9c0,0.5-0.2,0.9-0.4,1.3c-0.2,0.4-0.5,0.8-0.8,1.1
		c-0.1,0.1-0.2,0.3-0.2,0.5c-0.2,0.6-0.4,1.3-0.7,1.9c-0.3,0.5-0.6,0.9-1,1.2c-0.5,0.4-1.2,0.6-1.8,0.5c-0.3,0-0.6,0-0.9-0.1
		c-0.6-0.2-1.1-0.6-1.5-1c-0.4-0.4-0.6-0.9-0.8-1.4c-0.1-0.4-0.2-0.8-0.4-1.1c-0.1-0.1-0.1-0.3-0.2-0.4c-0.4-0.5-0.7-0.9-0.9-1.5
		c-0.1-0.3-0.2-0.6-0.3-0.9c-0.1-0.6,0.4-1,0.8-1.1c0.2,0,0.2,0,0.2-0.2c0-0.7,0-1.4,0-2.1c0-0.3,0-0.6,0.1-0.9
		c0.2-0.4,0.5-0.7,0.9-1c0.5-0.3,1-0.4,1.5-0.5c0.3-0.1,0.6-0.1,0.9-0.1c0,0,0,0,0.1,0C14.8,5,15.1,5,15.4,5z"/>
	<path class="st2" d="M6,25c0.1-0.4,0.1-0.8,0.2-1.2c0.2-1,0.6-1.9,1.1-2.8c0.9-1.4,2.1-2.4,3.7-3c0.1,0,0.2-0.1,0.4-0.1
		c0,0.1,0.1,0.3,0.1,0.4c0.4,2,1,4,1.8,5.9c0.1,0.3,0.2,0.5,0.4,0.8c-0.2,0-0.3,0-0.5,0C10.7,25,8.3,25,6,25z"/>
	<path class="st2" d="M16.8,25c-0.1,0-0.2,0-0.3,0c1.1-2.3,1.7-4.6,2.2-7.1c0,0,0.1,0,0.1,0c1.2,0.4,2.2,1,3,2
		c0.7,0.8,1.2,1.7,1.6,2.7c0.3,0.7,0.4,1.5,0.5,2.2c0,0.1,0,0.1,0,0.2C21.6,25,19.2,25,16.8,25z"/>
	<path class="st2" d="M15,24.5c-0.1-0.3-0.3-0.5-0.4-0.8c-0.3-0.5-0.5-1.1-0.8-1.6c0-0.1,0-0.1,0-0.2c0.2-0.6,0.4-1.1,0.5-1.7
		c0-0.1,0-0.1,0-0.2c-0.2-0.3-0.3-0.6-0.5-0.9c0,0,0-0.1-0.1-0.1c0.8,0,1.6,0,2.5,0c0,0.1-0.1,0.1-0.1,0.1c-0.2,0.3-0.3,0.6-0.5,0.9
		c0,0.1,0,0.1,0,0.2c0.2,0.6,0.4,1.1,0.5,1.7c0,0.1,0,0.1,0,0.2c-0.4,0.8-0.7,1.5-1.1,2.3C15.1,24.4,15,24.5,15,24.5z"/>
</g>
<g id="Calque_25" class="st0">
	<path class="st1" d="M0,3v0.5c0,4,0,7.9,0,11.9v11.2C0,26.8,0,27,0.3,27H30V3H0z M27.4,21.2c0,0.5-0.2,0.7-0.6,0.8
		c-1,0.2-1.5,0.7-1.6,1.7c-0.1,0.5-0.3,0.7-0.7,0.7h-19c-0.5,0-0.7-0.2-0.7-0.7c0-0.1,0-0.2-0.1-0.4c-0.2-0.8-0.8-1.2-1.6-1.3
		c-0.4-0.1-0.6-0.3-0.6-0.7V8.8c0-0.4,0.2-0.6,0.6-0.7c1-0.1,1.5-0.6,1.6-1.8c0.1-0.4,0.3-0.6,0.6-0.7c0.1,0,0.3,0,0.4,0
		c5.5,0,8,0,13.5,0h5.1c0.5,0,0.7,0.2,0.8,0.7c0.1,1,0.6,1.6,1.6,1.7c0.5,0.1,0.6,0.2,0.6,0.8V21.2z"/>
	<rect x="6" y="10.5" class="st1" width="18" height="1.5"/>
	<rect x="6" y="14.3" class="st1" width="18" height="1.5"/>
	<rect x="6" y="18" class="st1" width="18" height="1.5"/>
</g>
<g id="Calque_28" class="st0">
	<path class="st1" d="M30,13.1V5.4C30,4.5,29.5,4,28.6,4c-2.7,0-5.4,0-8.1,0l-0.3,0c-1.8,0-3.6,0-5.4,0c-0.1,0-0.2,0-0.2,0h-11
		C2.9,4,2.1,4,1.3,4c-0.6,0-1,0.3-1.2,0.8c0,0.7,0,1.4,0,2.1c0,3.4,0,6.9,0,10.3l0,2.6c0,1.7,0,3.4,0,5.1c0,0.1,0,0.2,0.1,0.3
		C0.3,25.8,0.8,26,1.3,26c2.3,0,4.5,0,6.8,0l2,0h18.4c0.9,0,1.4-0.5,1.4-1.4V14.1c0-0.2,0-0.3,0-0.5c0,0-0.1,0-0.1-0.1
		c0,0,0.1,0,0.1,0C30,13.3,30,13.2,30,13.1z M12.5,21.1c-0.1,0-0.3,0.1-0.4,0.1H3.3c-0.4,0-0.5-0.1-0.5-0.4c0-0.3,0.2-0.5,0.6-0.5
		h8.8c0.2,0,0.4,0.1,0.5,0.3C12.7,20.8,12.7,21,12.5,21.1z M12.5,18.3c-0.1,0.1-0.2,0.1-0.4,0.1c-1.5,0-2.9,0-4.4,0H3.4
		c-0.4,0-0.6-0.1-0.6-0.4c0-0.3,0.2-0.5,0.6-0.5h8.8c0.2,0,0.4,0.1,0.5,0.3C12.7,17.9,12.7,18.1,12.5,18.3z M12.1,15.5
		c-2.8,0-5.7,0-8.5,0c-0.1,0-0.2,0-0.4,0c-0.1,0-0.1,0-0.2,0c-0.1,0-0.1-0.1-0.1-0.1c-0.1-0.1-0.1-0.2-0.2-0.4
		c0.1-0.3,0.3-0.4,0.6-0.4h8.7c0.4,0,0.6,0.2,0.6,0.5C12.7,15.3,12.5,15.5,12.1,15.5z M12.3,12.6c-0.1,0-0.2,0-0.3,0
		c-2.9,0-5.7,0-8.6,0c-0.1,0-0.3,0-0.4-0.1c-0.2-0.1-0.3-0.3-0.2-0.5c0.1-0.2,0.2-0.3,0.5-0.3H12c0.1,0,0.2,0,0.3,0
		c0.3,0,0.4,0.2,0.4,0.4S12.5,12.5,12.3,12.6z M12.3,9.7c-0.1,0-0.1,0-0.2,0H3.3C3,9.7,2.8,9.6,2.8,9.3C2.7,9,2.9,8.8,3.3,8.8h8.8
		c0.2,0,0.4,0.1,0.5,0.3C12.8,9.3,12.6,9.6,12.3,9.7z M23.4,7C23.4,7,23.4,7,23.4,7C23.4,7,23.4,7,23.4,7C23.3,7,23.3,7,23.4,7
		C23.3,7,23.4,7,23.4,7z M22.9,6.5C22.9,6.5,22.9,6.5,22.9,6.5C22.9,6.6,22.9,6.6,22.9,6.5C22.9,6.6,22.9,6.6,22.9,6.5
		C22.9,6.5,22.9,6.5,22.9,6.5z M22.6,6.2L22.6,6.2C22.6,6.3,22.6,6.3,22.6,6.2C22.6,6.3,22.6,6.3,22.6,6.2L22.6,6.2z M24.5,22.8
		c-0.8-0.8-1.5-1.5-2.2-2.2c-0.7,0.7-1.5,1.4-2.2,2.1v-5.9c1.5,0.6,2.9,0.6,4.4,0V22.8z M24,16.5c-2.8,1.1-6-0.7-6.5-3.6
		c-0.5-2.5,1.3-5,3.8-5.5c0.8-0.2,1.5-0.1,2.3,0.1c0,0,0,0,0-0.1c0,0-0.1,0-0.1-0.1c0,0,0,0,0,0c0,0,0,0.1,0,0.1
		c0.1,0,0.1,0.1,0.2,0.1c0.4,0.2,0.8,0.4,1.2,0.6c0.1,0,0.2,0.1,0.2,0.2c0.5,0.3,0.8,0.7,1.1,1.1c0.5,0.6,0.7,1.3,0.8,2
		C27.4,13.7,26.2,15.6,24,16.5z M27.4,11.1C27.4,11,27.4,11,27.4,11.1C27.4,11,27.4,11,27.4,11.1C27.4,11,27.4,11,27.4,11.1
		C27.4,11,27.4,11.1,27.4,11.1z M27.8,11.5C27.8,11.5,27.8,11.5,27.8,11.5C27.8,11.5,27.8,11.5,27.8,11.5
		C27.8,11.5,27.8,11.5,27.8,11.5C27.8,11.5,27.8,11.5,27.8,11.5z M28.1,11.8C28.1,11.8,28.1,11.8,28.1,11.8L28.1,11.8
		C28.1,11.8,28.1,11.8,28.1,11.8C28.1,11.8,28.1,11.8,28.1,11.8z M28.4,12.1C28.4,12.1,28.4,12.1,28.4,12.1L28.4,12.1
		C28.4,12,28.4,12.1,28.4,12.1C28.4,12.1,28.4,12.1,28.4,12.1z M28.5,12.2C28.5,12.2,28.5,12.2,28.5,12.2
		C28.5,12.2,28.5,12.2,28.5,12.2C28.5,12.2,28.6,12.2,28.5,12.2C28.6,12.2,28.5,12.2,28.5,12.2z M28.7,12.4
		C28.7,12.4,28.7,12.4,28.7,12.4C28.7,12.4,28.7,12.3,28.7,12.4C28.7,12.3,28.7,12.4,28.7,12.4C28.7,12.4,28.7,12.4,28.7,12.4z
		 M28.8,12.5C28.8,12.5,28.8,12.5,28.8,12.5C28.8,12.5,28.8,12.5,28.8,12.5C28.9,12.5,28.9,12.5,28.8,12.5
		C28.9,12.5,28.9,12.5,28.8,12.5z M29.2,12.8C29.2,12.8,29.1,12.8,29.2,12.8C29.2,12.8,29.2,12.8,29.2,12.8
		C29.2,12.8,29.2,12.8,29.2,12.8C29.2,12.8,29.2,12.8,29.2,12.8z M29.3,13C29.3,13,29.3,12.9,29.3,13C29.3,12.9,29.3,12.9,29.3,13
		C29.4,12.9,29.4,12.9,29.3,13C29.4,13,29.3,13,29.3,13z"/>
</g>
<g id="Calque_23" class="st0">
	<path class="st2" d="M15,9c1.4,0,2.6,0,4,0c0,4.3,0,8.6,0,13c-1.3,0-2.6,0-4,0C15,17.7,15,13.4,15,9z"/>
	<path class="st2" d="M13,7c0,5,0,10,0,15c-1.3,0-2.6,0-4,0c0-5,0-10,0-15C10.3,7,11.6,7,13,7z M12,8c-0.7,0-1.4,0-2,0
		c0,0.7,0,1.3,0,2c0.7,0,1.3,0,2,0C12,9.3,12,8.7,12,8z"/>
	<path class="st2" d="M25,18c-1.4,0-2.6,0-4,0c0-2.7,0-5.3,0-8c1.3,0,2.6,0,4,0C25,12.7,25,15.3,25,18z"/>
	<path class="st2" d="M7,22c-0.8,0-1.2,0-2,0c0-5.7,0-11.3,0-17c0.7,0,1.2,0,2,0C7,10.6,7,16.3,7,22z"/>
	<path class="st2" d="M5,25c0-0.7,0-1.3,0-2c6.7,0,13.3,0,20,0c0,0.7,0,1.3,0,2C18.4,25,11.8,25,5,25z"/>
	<path class="st2" d="M21,8.2c0-0.8,0-1.4,0-2.2c1.3,0,2.6,0,4,0c0,0.7,0,1.4,0,2.2C23.7,8.2,22.4,8.2,21,8.2z"/>
	<path class="st2" d="M21,20c1.4,0,2.6,0,4,0c0,0.7,0,1.3,0,2c-1.3,0-2.6,0-4,0C21,21.3,21,20.7,21,20z"/>
</g>
<g id="Calque_16" class="st0">
	<g class="st3">
		<path class="st5" d="M13.1,12.2c1.4,0,2.8,0,4.2,0c0,4.3,0,8.5,0,12.8c-1.4,0-2.8,0-4.2,0C13.1,20.7,13.1,16.5,13.1,12.2z"/>
		<path class="st5" d="M7,18.4c1.9,0,2.8,0,4.7,0c0,2.5,0,4.1,0,6.6c-1.9,0-2.7,0-4.7,0C7,22.5,7,20.9,7,18.4z"/>
		<path class="st5" d="M18.9,18.3c1.7,0,2.5,0,4.1,0c0,2.6,0,4.1,0,6.7c-1.6,0-2.5,0-4.1,0C18.9,22.5,18.9,20.9,18.9,18.3z"/>
		<path class="st5" d="M11.6,16.9c-0.4,0,0.2,0-0.1,0c-1.7,0-5.1,0-5.1,0l-1.4,0c0,0,0-3,0-4.4c2.2,0,4.4,0,6.6,0
			C11.6,13.9,11.6,15.3,11.6,16.9z"/>
		<path class="st5" d="M18.9,12.4H25c0,1.5,0,2.9,0,4.4c-0.1,0-1.3,0-1.4,0c-1.8,0-2.6,0-4.5,0c-0.2,0-0.3-0.1-0.3-0.3
			C18.9,15.2,18.9,13.8,18.9,12.4z"/>
		<path class="st5" d="M16.6,10.9c0.4-0.1,0.9-0.2,1.3-0.4c0.7-0.3,1.4-0.5,2.1-0.9c0.8-0.4,0.9-1,0.6-1.7c-0.4-0.8-1-1-1.7-0.6
			c-0.6,0.4-1.2,1-1.7,1.5c-0.4,0.4-0.7,1-1.1,1.4c0.1-0.4,0.1-0.8,0.3-1.1c0.3-1.1,0.9-2,1.9-2.7c1.2-0.8,2.5-0.6,3.3,0.5
			c0.9,1.2,0.6,2.7-0.7,3.4C19.5,11.2,18.1,11.3,16.6,10.9z"/>
		<path class="st5" d="M14.6,10.2c-0.2-0.6-0.3-1.1-0.6-1.7c-0.3-0.7-0.7-1.3-1.2-1.9C12.3,6,11.7,6,11.2,6.5
			c-0.6,0.5-0.8,1.1-0.4,1.8c0.5,0.8,1.3,1.3,2.1,1.8c0.3,0.2,0.7,0.4,1,0.6c0,0,0,0.1,0,0.1c-0.2,0-0.5,0-0.7-0.1
			C12,10.4,11,10,10.2,9.1C9.5,8.4,9.2,7.6,9.6,6.7c0.4-0.9,1.1-1.6,2.1-1.7c0.7-0.1,1.2,0.2,1.7,0.6c0.9,0.9,1.3,2,1.4,3.2
			c0,0.5,0,0.9,0,1.4C14.7,10.2,14.6,10.2,14.6,10.2z"/>
		<path class="st5" d="M16.4,11.9c-0.8,0-1.6,0-2.4,0c-0.1-0.6,0.3-1.1,1-1.2C15.9,10.7,16.3,11.1,16.4,11.9z"/>
	</g>
</g>
<g id="Calque_3">
</g>
<g id="Calque_31" class="st0">
	<rect class="st1" width="30" height="30"/>
</g>
<g id="Calque_19">
	<path class="st4" d="M15,21c-4.6,0-9.2,0-13.8,0c-0.5,0-0.9-0.2-1-0.7C0,20.2,0,20,0,19.8c0-3.2,0-6.4,0-9.6c0-2,0-4,0-5.9
		c0-0.4,0.1-0.8,0.5-1C0.7,3.1,0.9,3,1.2,3c2.2,0,4.5,0,6.7,0c0.4,0,0.9,0,1.3,0c5.6,0,11.3,0,16.9,0c0.8,0,1.6,0,2.5,0
		C29.4,3,30,3.5,30,4.2c0,1.2,0,2.5,0,3.7c0,4,0,7.9,0,11.9c0,0.4-0.2,0.8-0.6,1.1C29.3,20.9,29.2,21,29,21C24.3,21,19.7,21,15,21z
		 M2,19c9.2,0,16.8,0,26,0c0-5.2,0-8.9,0-14C18.8,5,11.1,5,2,5C2,10.2,2,13.8,2,19z"/>
	<path class="st4" d="M23,27c-5.3,0-10.7,0-16,0c0-0.7,0.2-1.4,0.6-1.9c0.2-0.2,0.5-0.3,0.8-0.3c0.9,0,1.8,0,2.7,0
		c0.1,0,0.1,0,0.2,0c0-0.6,0-1.2,0-1.8c2.5,0,5.1,0,7.6,0c0,0.6,0,1.2,0,1.8c0.1,0,0.1,0,0.2,0c0.8,0,1.6,0,2.4,0
		c0.6,0,1,0.3,1.3,0.9C22.9,26.1,23,26.5,23,27z"/>
</g>
<g id="Calque_46">
</g>
<g id="Calque_2" class="st0">
	<path class="st1" d="M18.5,21c-2.3,0-4.5,0-6.7,0c0,3,0,5.9,0,8.9c-0.2,0-0.3,0-0.4,0c-2.1,0-4.2,0-6.3,0c-0.6,0-0.8-0.2-0.8-0.8
		c0-4.4,0-5.7,0-10.1c0-0.4,0.1-0.7,0.4-0.9c3.3-2.9,6.6-5.8,9.9-8.7c0.4-0.3,0.7-0.3,1.1,0c3.3,2.9,6.7,5.8,10,8.8
		c0.3,0.2,0.4,0.5,0.4,0.8c0,4.3,0,5.7,0,10c0,0.7-0.2,0.9-0.9,0.9c-2.1,0-4.2,0-6.4,0c-0.1,0-0.3,0-0.4,0C18.5,27,18.5,24,18.5,21z
		 M13,15.5c0,1.4,1.1,2.5,2.5,2.5c1.4,0,2.5-1.1,2.5-2.5c0-1.4-1.1-2.5-2.5-2.5C14.1,13,13,14.1,13,15.5z"/>
	<path class="st1" d="M23.2,4.9c0,0.5,0,0.9,0,1.4c0,0.5,0.2,0.9,0.5,1.2c2,1.7,4,3.5,5.9,5.2c0.1,0.1,0.3,0.2,0.3,0.3
		c0,0.3,0,1.2,0,1.8c-1.1,0-2.4,0-3.5,0c-0.3,0-0.7-0.3-0.9-0.5c-3.2-2.8-6.5-5.6-9.7-8.5c-0.6-0.5-0.7-0.5-1.3,0
		c-3.2,2.8-6.5,5.7-9.7,8.5c-0.4,0.3-0.8,0.5-1.3,0.5c-1.1,0-2.1,0-3.2,0c-0.1,0-0.3,0-0.4,0c0-0.3,0-1.5,0-1.7
		C3.8,9.7,7.8,6.1,11.5,2.9c1-0.9,2-1.7,3-2.6c0.4-0.4,0.7-0.4,1.1,0c1.5,1.3,2.9,2.5,4.4,3.8c0.1,0.1,0.1,0.2,0.2,0.2
		c0.1,0.1,0.2,0.1,0.4,0.2c0-0.1,0.1-0.3,0.1-0.4c0-0.2,0-2,0-2.2c0-0.5,0.2-0.7,0.7-0.7c0.4,0,0.8,0,1.2,0c0.5,0,0.7,0.2,0.7,0.7
		C23.3,2.4,23.2,4.4,23.2,4.9z"/>
</g>
<g id="Calque_4" class="st0">
	<path class="st1" d="M16,27.9c-1.2,0-2.3,0-3.5,0.1c-0.6,0-1.1,0-1.7,0c-0.6,0-0.8-0.2-0.8-0.7c0-3.4,0-6.8,0-10.2
		c0-1.9,0-3.8,0-5.7c0-0.6,0.2-0.8,0.9-0.8c1.5,0,3,0,4.5,0c0.6,0,0.7,0.2,0.7,0.6c0,0.5,0,1,0,1.6c0.2-0.2,0.4-0.4,0.5-0.6
		c1-1.1,2.3-2,3.9-2.2c2.1-0.3,4.2-0.3,6.1,0.9c1.9,1.1,2.8,2.7,3.2,4.6c0.2,0.8,0.2,1.6,0.2,2.3c0,3.1,0,6.3,0,9.4
		c0,0.5-0.1,0.7-0.7,0.6c-1.6,0-3.2,0-4.7,0c-0.6,0-0.7-0.2-0.7-0.6c0-3.2,0-6.4,0-9.6c0-1.9-1.5-3.1-3.7-3.2
		c-2.2,0-3.8,1.2-3.9,3.1c-0.1,3.1-0.1,6.2-0.1,9.3c0,0.3,0,0.5,0,0.8C16,27.8,16,27.9,16,27.9z"/>
	<path class="st1" d="M6,19c0,2.8,0,5.6,0,8.3C6,27.8,5.8,28,5.3,28c-1.5,0-3.1,0-4.6,0C0.1,28,0,27.8,0,27.4c0-5.6,0-11.1,0-16.7
		C0,10.2,0.2,10,0.7,10c1.5,0,3,0,4.5,0C5.9,10,6,10.2,6,10.7C6,13.5,6,16.3,6,19z"/>
	<path class="st1" d="M3,8C1.2,8,0,6.8,0,5c0-1.7,1.2-3,3-3c1.8,0,3,1.2,3,3C6,6.7,4.7,8,3,8z"/>
</g>
<g id="Calque_5" class="st0">
	<path class="st1" d="M15,15c-3.4-3.3-5.6-5.6-9-9c6.8,0,11.2,0,18,0C20.6,9.4,18.4,11.7,15,15z"/>
	<path class="st1" d="M17.7,17.2c2.3,2.6,3.7,4.1,6.3,6.8c-6.8,0-11.2,0-18,0c0.4-0.4,0.7-0.8,1-1.2c2.1-2.2,3.1-3.3,5.1-5.5
		c0.4-0.4,0.6-0.4,1,0c0.4,0.4,0.8,0.8,1.2,1.3c0.4,0.4,0.7,0.5,1.2,0c0.4-0.5,0.9-0.9,1.4-1.3C17.1,17,17.5,17,17.7,17.2z"/>
	<path class="st1" d="M18,15l8-8c0,6.5,0,9.9,0,16L18,15z"/>
	<path class="st1" d="M4,23V7c7.7,7.7,0.3,0.4,8,8L4,23z"/>
	<path class="st1" d="M0,2v26h30V2H0z M28,26H2V4h26V26z"/>
</g>
<g id="Calque_8" class="st0">
	<path class="st1" d="M25.4,5.2c0-0.2,0.1-0.2,0.2-0.2c0.8,0,1.5,0,2.3,0C28.9,5,30,5.9,30,7c0,1.3,0,1.7,0,2.9c0,5.9,0,11.2,0,17.1
		c0,1.2-1,2-2,2H2c-1,0-2-1-2-2c0-4.1,0-4.6,0-8.7C0,15.3,0,10,0,7c0-1.2,1-2,2.2-2c0.7,0,1.5,0,2.2,0c0.2,0,0.2,0.1,0.2,0.3
		c0,0.6,0,1.1,0,1.7C4.6,8.1,5.4,8,6.5,8c1,0,1.9,0,1.9-1.1c0-0.6,0-1.3,0-1.9c0.1,0,0.2,0,0.3,0c4.2,0,8.4,0,12.5,0
		c0.2,0,0.3,0.1,0.3,0.3c0,0.5,0,1.1,0,1.6c0,1,0.8,1.1,2,1.1c1.2,0,1.9-0.1,1.9-1L25.4,5.2z M15,10c-4.2,0-7.8,0-12,0
		c-0.3,0-1,0-1,1c0,6.3,0,8.7,0,15c0,0.6,0.5,1,1,1c4.2,0,8,0,12.1,0c4.1,0,7.8,0,11.9,0c0.5,0,1-0.5,1-1c0-0.1,0-4.9,0-5
		c0-6.1,0-3.9,0-10c0-0.4,0-1-1-1C22.8,10,19.2,10,15,10z"/>
	<path class="st1" d="M6,3.5c0-0.5,0-1.1,0-1.6C6,1.3,6.2,1,6.5,1C6.8,1,7,1.3,7,1.9C7,3,7,4,7,5.1C7,5.6,6.8,6,6.5,6
		C6.2,6,6,5.6,6,5.1C6,4.6,6,4,6,3.5z"/>
	<path class="st1" d="M24,3.5c0,0.6,0,1.1,0,1.7C24,5.6,23.8,6,23.5,6C23.2,6,23,5.7,23,5.2c0-1.1,0-2.3,0-3.4C23,1.3,23.2,1,23.5,1
		C23.8,1,24,1.3,24,1.8C24,2.4,24,2.9,24,3.5z"/>
	<path class="st4" d="M23,19c0.8,0,1.5,0,2.3,0c0.5,0,0.7,0.2,0.7,0.6c0,0.9,0,1.9,0,2.8c0,0.4-0.2,0.6-0.6,0.6c-1.6,0-3.2,0-4.7,0
		c-0.4,0-0.6-0.2-0.6-0.5c0-1,0-1.9,0-2.9c0-0.3,0.3-0.6,0.7-0.6C21.5,19,22.2,19,23,19z"/>
	<path class="st1" d="M7,22c0.8,0,1.5,0,2.3,0c0.5,0,0.7,0.1,0.7,0.4c0,0.7,0,1.4,0,2.2c0,0.3-0.3,0.4-0.7,0.4c-1.6,0-3.1,0-4.7,0
		C4.2,25,4,24.9,4,24.6c0-0.7,0-1.4,0-2.2C4,22.1,4.2,22,4.7,22C5.4,22,6.2,22,7,22z"/>
	<path class="st4" d="M15,25c0.8,0,1.5,0,2.3,0c0.5,0,0.7,0.2,0.7,0.6c0,0.9,0,1.9,0,2.8c0,0.4-0.2,0.6-0.7,0.6c-1.6,0-3.1,0-4.7,0
		c-0.4,0-0.7-0.2-0.7-0.6c0-0.9,0-1.9,0-2.8c0-0.4,0.3-0.6,0.7-0.6C13.5,25,14.2,25,15,25C15,25,15,25,15,25z"/>
	<path class="st4" d="M7,29c-0.8,0-1.5,0-2.3,0C4.2,29,4,28.8,4,28.4c0-0.9,0-1.9,0-2.8C4,25.2,4.2,25,4.7,25c1.5,0,3,0,4.6,0
		c0.5,0,0.8,0.2,0.8,0.7c0,0.8,0,1.5,0,2.3c0,0.2,0,0.4,0,0.6C9.9,28.9,9.7,29,9.3,29C8.6,29,7.8,29,7,29C7,29,7,29,7,29z"/>
	<path class="st1" d="M15,22c0.8,0,1.5,0,2.3,0c0.5,0,0.7,0.1,0.7,0.4c0,0.7,0,1.4,0,2.2c0,0.3-0.3,0.4-0.7,0.4c-1.6,0-3.1,0-4.7,0
		c-0.4,0-0.7-0.1-0.7-0.4c0-0.7,0-1.4,0-2.2c0-0.3,0.2-0.4,0.7-0.4C13.9,22,13.7,22,15,22z"/>
	<path class="st1" d="M7,17c0.8,0,1.5,0,2.3,0c0.5,0,0.7,0.1,0.7,0.4c0,0.7,0,1.4,0,2.2c0,0.3-0.3,0.4-0.7,0.4c-1.6,0-3.1,0-4.7,0
		C4.2,20,4,19.9,4,19.6c0-0.7,0-1.4,0-2.2C4,17.1,4.2,17,4.7,17C5.4,17,6.2,17,7,17z"/>
	<path class="st1" d="M15,17c0.8,0,1.5,0,2.3,0c0.5,0,0.7,0.1,0.7,0.4c0,0.7,0,1.4,0,2.2c0,0.3-0.3,0.4-0.7,0.4c-1.6,0-3.1,0-4.7,0
		c-0.4,0-0.7-0.1-0.7-0.4c0-0.7,0-1.4,0-2.2c0-0.3,0.2-0.4,0.7-0.4C13.4,17,14.2,17,15,17z"/>
	<path class="st1" d="M23,17c0.8,0,1.5,0,2.3,0c0.5,0,0.7,0.1,0.7,0.4c0,0.7,0,1.4,0,2.2c0,0.3-0.3,0.4-0.7,0.4c-1.6,0-3.1,0-4.7,0
		c-0.4,0-0.7-0.1-0.7-0.4c0-0.7,0-1.4,0-2.2c0-0.3,0.2-0.4,0.7-0.4C21.4,17,22.2,17,23,17z"/>
	<path class="st1" d="M15,12c0.8,0,1.5,0,2.3,0c0.5,0,0.7,0.1,0.7,0.4c0,0.7,0,1.4,0,2.2c0,0.3-0.3,0.4-0.7,0.4c-1.6,0-3.1,0-4.7,0
		c-0.4,0-0.7-0.1-0.7-0.4c0-0.7,0-1.4,0-2.2c0-0.3,0.2-0.4,0.7-0.4C13.4,12,14.2,12,15,12z"/>
	<path class="st1" d="M23,12c0.8,0,1.5,0,2.3,0c0.5,0,0.7,0.1,0.7,0.4c0,0.7,0,1.4,0,2.2c0,0.3-0.3,0.4-0.7,0.4c-1.6,0-3.1,0-4.7,0
		c-0.4,0-0.7-0.1-0.7-0.4c0-0.7,0-1.4,0-2.2c0-0.3,0.2-0.4,0.7-0.4C21.4,12,22.2,12,23,12z"/>
</g>
<g id="Calque_9" class="st0">
	<path class="st1" d="M9.2,21.4c0.7,0.9,1.4,1.8,2,2.6c-0.8,1-1.5,2-2.2,3c-3-4-6-8-9-12c3-4,6-8,9-12c0.7,0.9,1.4,1.9,2.2,2.9
		c-0.6,0.8-1.3,1.7-2,2.7c3.9,0,7.8,0,11.6,0c-0.6-0.8-1.3-1.7-1.9-2.5C19.6,5,20.3,4,21,3c3,3.9,6,8,9,12c-3,4-6,8-9,12
		c-0.7-0.9-1.4-1.9-2.2-2.9c0.6-0.8,1.3-1.7,1.9-2.5c0,0,0-0.1-0.1-0.1C16.9,21.4,13.1,21.4,9.2,21.4z M4.4,15c0.5,0.7,1,1.3,1.5,2
		c0.1,0.1,0.2,0.2,0.4,0.2c5.8,0,11.7,0,17.5,0c0.1,0,0.2,0,0.3-0.1c0.5-0.7,1-1.4,1.5-2.1c-0.5-0.7-1-1.3-1.5-1.9
		c-0.1-0.1-0.3-0.2-0.4-0.2c-5.8,0-11.7,0-17.5,0c-0.1,0-0.3,0.1-0.4,0.2C5.3,13.7,4.9,14.3,4.4,15z"/>
</g>
<g id="Calque_7" class="st0">
	<path class="st1" d="M15,30c-2.4-3.4-4.8-6.8-7.2-10.3c-1.3-1.9-2.3-4.1-2.7-6.6C4.5,8.5,6.5,3.8,10.1,1.5
		c3.4-2.1,6.9-2.1,10.1,0.2c3.3,2.3,4.9,5.9,4.8,10.3c-0.1,2.1-0.7,4-1.8,5.7c-1.6,2.6-3.4,5.2-5.1,7.7C17.1,27,16,28.5,15,30z
		 M15,13c1.6,0,3-1.4,3-3c0-1.6-1.4-3-3-3c-1.6,0-3,1.4-3,3C12,11.7,13.4,13,15,13z"/>
</g>
<g id="Calque_12" class="st0">
	<path class="st1" d="M25.2,9.8c-3.7,5.4-7.3,10.7-11,16C13.7,26.6,13,27,12.2,27c-0.8,0-1.4-0.4-1.9-1.1c-1.8-2.7-3.7-5.3-5.5-8
		c-1.1-1.6-1.1-4.1,0-5.7c1.1-1.6,2.8-1.6,3.9,0c1.1,1.5,2.2,3.1,3.2,4.7c0.3,0.4,0.4,0.4,0.7,0c2.9-4.2,5.8-8.4,8.7-12.6
		c1.5-2.1,3.9-1.4,4.6,1.4C26.2,7.2,26,8.6,25.2,9.8z"/>
</g>
<g id="Calque_27" class="st0">
	<path class="st1" d="M20.3,22.9c-0.3-0.1-0.7-0.2-1-0.3c-0.4-0.2-0.8-0.4-1.2-0.6c-0.3-0.2-0.6-0.1-0.8,0.2
		c-0.2,0.2-0.3,0.5-0.5,0.7c-0.1,0.2-0.3,0.4-0.4,0.6c-0.9,1.1-1.8,1.1-2.7,0c-0.2-0.3-0.5-0.6-0.7-1c-0.5-0.8-0.6-0.8-1.5-0.4
		c-0.4,0.2-0.7,0.4-1.1,0.5c-0.2,0.1-0.4,0.1-0.6,0.1c-0.8,0.1-1.3-0.3-1.4-1c-0.1-0.6-0.2-1.3-0.2-1.9c0-0.6-0.1-0.7-0.7-0.7
		c-0.6,0-1.2-0.1-1.8-0.2c-0.9-0.2-1.3-0.9-1-1.8c0.2-0.5,0.4-1.1,0.7-1.6c0.3-0.7,0.3-0.8-0.3-1.3c-0.3-0.2-0.6-0.4-0.9-0.7
		c-0.2-0.1-0.4-0.3-0.5-0.5c-0.6-0.6-0.6-1.4,0-2c0.3-0.3,0.7-0.6,1.1-0.9c1-0.7,1-0.8,0.5-1.9C4.9,8.1,4.8,7.8,4.7,7.5
		C4.2,6.2,4.8,5.3,6.1,5.3c0.4,0,0.9,0,1.3-0.1C8,5.1,8.1,5,8.1,4.5c0-0.6,0.1-1.2,0.2-1.8c0.2-1,0.9-1.4,1.8-1.1
		c0.5,0.2,1,0.4,1.5,0.7c0.6,0.3,0.8,0.2,1.2-0.3c0.3-0.4,0.5-0.7,0.8-1.1c0.7-1,2-1,2.7,0c0.3,0.4,0.6,0.8,0.9,1.2
		c0.3,0.5,0.4,0.5,1,0.3C18.5,2.2,18.8,2,19,1.9c0.2-0.1,0.5-0.2,0.7-0.3c1.1-0.4,1.9,0.2,2,1.3c0,0.5,0.1,0.9,0.1,1.4
		c0,0.6,0.2,0.8,0.8,0.9c0.6,0.1,1.1,0.1,1.7,0.2c0.9,0.2,1.4,0.9,1.1,1.8c-0.2,0.6-0.5,1.2-0.8,1.8c-0.2,0.4-0.1,0.6,0.2,0.9
		c0.4,0.3,0.9,0.6,1.3,1c1,0.8,1,1.8,0,2.6c-0.4,0.3-0.9,0.6-1.3,0.9c-0.5,0.4-0.5,0.5-0.3,1c0.2,0.4,0.4,0.9,0.6,1.3
		c0.1,0.3,0.2,0.6,0.2,0.9c0,0.5-0.2,0.9-0.7,1.1c-0.3,0.1-0.7,0.2-1,0.3c-0.4,0.1-0.8,0.1-1.2,0.1c-0.6,0-0.7,0.2-0.8,0.8
		c0,0.6-0.1,1.2-0.2,1.8C21.5,22.5,21,22.9,20.3,22.9z M15,3.8c-4.1-0.2-8.3,3.5-8.2,8.4c0,4.8,4,8.4,8.4,8.4c4.4-0.1,8.5-4,8.1-9.2
		C22.9,7.4,19.3,3.6,15,3.8z"/>
	<path class="st1" d="M25.8,26.6c-1-0.1-2-0.1-3-0.3c-0.3,0-0.4,0.1-0.5,0.3c-0.4,0.9-0.8,1.8-1.2,2.7c-0.1,0.3-0.3,0.5-0.6,0.5
		c-0.3,0-0.5-0.2-0.6-0.4c-1-1.7-1.9-3.4-2.9-5.1c-0.1-0.2-0.1-0.4,0-0.6c0.2-0.3,0.4-0.6,0.6-0.9c0.2-0.2,0.3-0.3,0.6-0.2
		c0.6,0.3,1.1,0.5,1.7,0.7c1.1,0.3,2.1-0.4,2.3-1.5c0.1-0.5,0.1-1.1,0.2-1.7c0-0.2,0.1-0.4,0.2-0.5c0.2-0.1,0.4,0,0.6,0.2
		c1.1,1.8,2.1,3.7,3.2,5.5C26.8,26.2,26.5,26.6,25.8,26.6z"/>
	<path class="st1" d="M3.4,26c0-0.1,0.1-0.2,0.1-0.3c1.1-1.9,2.2-3.7,3.2-5.6c0.1-0.2,0.3-0.4,0.5-0.3c0.1,0.1,0.2,0.3,0.2,0.4
		c0.1,0.6,0.1,1.1,0.2,1.7c0.2,1.2,1.4,1.8,2.3,1.5c0.6-0.2,1.2-0.4,1.7-0.7c0.3-0.2,0.5-0.1,0.7,0.2c0.2,0.3,0.4,0.6,0.6,0.9
		c0.1,0.1,0.1,0.4,0,0.5c-1,1.8-2,3.5-3,5.3c-0.3,0.5-0.8,0.5-1.1-0.1c-0.4-0.9-0.8-1.8-1.3-2.8c-0.1-0.3-0.3-0.4-0.6-0.4
		c-1,0.1-1.9,0.2-2.9,0.3C3.7,26.7,3.4,26.4,3.4,26z"/>
	<path class="st1" d="M22,12.2c0.2,3.2-2.5,7.1-7,7.1c-3.8,0-7-3.1-7-7.1c0-4,3.2-6.9,6.6-7.1C18.8,4.8,22.2,8.4,22,12.2z M13.7,16
		c0.2-0.1,0.3-0.2,0.5-0.3c1.8-1.8,3.6-3.6,5.4-5.4c0.3-0.3,0.3-0.7,0-0.9c-0.2-0.2-0.6-0.2-0.9,0.1c-0.1,0.1-0.2,0.2-0.3,0.3
		c-1.4,1.5-2.9,2.9-4.3,4.4c-0.4,0.4-0.4,0.4-0.8,0c-0.7-0.7-1.3-1.4-2-2c-0.3-0.3-0.7-0.3-0.9-0.1c-0.2,0.2-0.2,0.6,0,0.9
		c0.9,0.9,1.8,1.9,2.8,2.8C13.4,15.8,13.5,15.9,13.7,16z"/>
</g>
<g id="Calque_22" class="st0">
	<path class="st1" d="M7.8,4c0-0.3,0-1.7,0-2c4.8,0,9.6,0,14.4,0c0,0.3,0,1.7,0,2c1.6,0,3.2,0,4.8,0c0,0.6,0,0-0.1,0.5
		c-0.1,1.4-0.3,2.8-0.5,4.2c-0.3,1.7-0.7,3.4-1.5,4.9c-0.6,1.1-1.3,1.9-2.3,2.3c-0.9,0.4-1.8,0.8-2.7,1.2c-0.1,0.1-0.2,0.1-0.3,0.2
		c-0.7,0.9-1.5,1.6-2.4,2.1c-0.6,0.4-1,1-1,1.9c0,1.3,0-1.4,0-0.1c0,1.7,1,3,2.4,3c0.3,0,0.6,0,0.9,0c0,0.5,0,1,0,1.5
		c0.4,0,1.4,0,1.8,0c0,0.7,0,1.5,0,2.2c-3.9,0-8.9,0-12.8,0c0-0.7,0-1.5,0-2.2c0.4,0,1.4,0,1.8,0c0-0.5,0-1,0-1.5c0.3,0,0.7,0,1,0
		c0.4,0,0.9-0.1,1.2-0.4c0.7-0.6,1.1-1.4,1.2-2.4c0-1.4,0,1.3,0-0.1c0-0.9-0.3-1.5-0.9-1.9c-0.9-0.6-1.7-1.3-2.5-2.2
		c-0.1-0.1-0.2-0.2-0.2-0.2c-0.5-0.2-1.1-0.5-1.6-0.7c-0.4-0.2-0.9-0.4-1.3-0.6c-1.1-0.6-1.9-1.5-2.5-2.8c-0.7-1.4-1-2.9-1.3-4.5
		C3.2,6.7,3.1,5.8,3,4H7.8z M22.2,6c-0.2,3.4-0.5,5.4-1.4,8.7c0.4-0.2,0.8-0.4,1.2-0.6c0.4-0.2,0.8-0.4,1.1-0.8
		c0.6-0.8,1-1.7,1.3-2.7c0.4-1.3,0.5-1.7,0.8-3.1c0.1-0.6,0.1-0.9,0.1-1.4C24.3,6,23.3,6,22.2,6z M4.6,6C4.7,7.2,4.8,7.3,5,8.5
		c0.2,1.4,0.6,2.8,1.3,4.1c0.2,0.4,0.5,0.9,0.9,1.1c0.6,0.4,1.5,0.7,2.2,1.1C8.6,11.4,8,9.4,7.8,6H4.6z"/>
</g>
<g id="Calque_11" class="st0">
	<path class="st1" d="M4.5,16.8c0.6-1.4,0-2.7-1.1-3.9c-0.5-0.5-0.5-1.3,0-1.8c1.1-1.2,1.5-2.4,1.1-4c-0.2-0.9,0.2-1.3,1-1.7
		c0.1-0.1,0.2-0.1,0.4-0.1c1.2-0.3,1.9-1.1,2.3-2.2c0.4-1.4,0.9-1.6,2.3-1.4c1.3,0.3,2.3,0,3.3-0.9c1-0.9,1.6-0.9,2.5,0
		c1,1,2.1,1.2,3.5,0.9c1.1-0.2,1.6,0.1,2,1.1c0.1,0.3,0.2,0.5,0.3,0.8c0.2,0.8,0.8,1.2,1.5,1.5c2.2,0.9,2.2,0.9,1.8,3.2
		c-0.1,0.8,0.1,1.4,0.6,2c1.4,1.7,1.4,1.9,0,3.6c-0.6,0.7-0.8,1.4-0.6,2.3c0.1,0.3,0.1,0.6,0.1,0.8c0.1,0.8-0.1,1.4-0.9,1.7
		c-1.6,0.5-2.6,1.5-3,3c-0.2,0.7-0.8,1.1-1.5,0.9c-1.7-0.4-3,0-4.3,1.2c-0.5,0.5-1.1,0.4-1.7,0c-0.3-0.2-0.5-0.3-0.7-0.5
		c-0.8-0.8-1.7-0.9-2.8-0.7c-1.5,0.3-2,0.1-2.5-1.4c-0.4-1.2-1.1-1.9-2.3-2.3C4.7,18.5,4.5,18,4.5,16.8z M5.7,12
		c0,5.2,4.2,9.3,9.4,9.3c5.2,0,9.4-4.2,9.4-9.4c0-5.1-4.2-9.4-9.4-9.4C9.9,2.6,5.6,6.8,5.7,12z"/>
	<path class="st1" d="M7.8,22.5c0.6,1,1.8,1,3.1,0.9c0.8-0.1,1.6,0,2.2,0.3c0.4,0.2,1,0.4,1.5,0.7c-1.1,1.8-2.3,3.7-3.5,5.6
		c-0.5-0.5-0.9-1-1.4-1.4c-0.3-0.3-0.5-0.6-0.8-0.9c-0.2-0.2-0.4-0.2-0.7-0.2c-1.3,0.3-2.7,0.5-4.1,0.8C5.3,26.4,6.5,24.5,7.8,22.5z
		"/>
	<path class="st1" d="M25.9,28.4c-1.4-0.3-2.7-0.5-3.9-0.8c-0.5-0.1-0.8-0.1-1.1,0.2c-0.6,0.7-1.3,1.4-2,2.2
		c-1.2-1.9-2.4-3.8-3.5-5.6c0.6-0.2,1.1-0.5,1.6-0.7c0.6-0.3,1.3-0.4,2.1-0.3c0.3,0,0.6,0,0.8,0.1c1.1,0.1,1.9-0.2,2.3-0.9
		C23.5,24.5,24.7,26.4,25.9,28.4z"/>
	<path class="st1" d="M15,3.9c4.6,0,8.2,3.6,8.2,8.2c0,4.5-3.7,8.1-8.2,8.1c-4.5,0-8.2-3.7-8.1-8.2C6.9,7.5,10.5,3.8,15,3.9z
		 M15,5.1C11.2,5,8,8.2,8,12c0,3.8,3.2,7,7,7c3.8,0,7-3.1,7-7C22,8.1,18.9,5.1,15,5.1z"/>
	<path class="st1" d="M18.7,8.8c0.4,0.4,0.8,0.8,1.2,1.3c-2,1.8-4,3.6-5.9,5.3c-1.3-1.2-2.5-2.3-3.8-3.5c0.5-0.5,0.9-0.8,1.3-1.2
		c0.7,0.7,1.5,1.5,2.4,2.3L18.7,8.8z"/>
	<path class="st1" d="M2,28V2h5c0-0.8,6-1.1,6-2H0v30h11c0-0.8-1-2.2-1-3L2,28z"/>
	<path class="st1" d="M30,0H17c0,0.9,6,1.2,6,2h5l0,26l-8-1c0,0.8-1,2.2-1,3h11V0z"/>
	<polygon class="st1" points="18,30 12,30 15,26 15,26 	"/>
</g>
<g id="Calque_26" class="st0">
	<path class="st1" d="M4.3,26c0-1.7,0-13.8,0-15.5c0.3,0.1,0.5,0.2,0.7,0.3c2.1,0.8,5.9,2.3,8,3.1c0.6,0.2,1.2,0.5,1.7,0.7
		c0.1,0,0.2,0.1,0.3,0c2.2-0.9,4.3-1.7,6.5-2.6c0.7-0.3,2.6-1.2,3.4-1.5c0,0,0.1,0,0.1,0c0,1.7,0,13.8,0,15.5c-0.1,0-0.2,0-0.3,0
		c-1.3,0-3.8,0.9-5.1,1.4c-1.4,0.5-2.6,1.2-3.9,2c-0.2,0.2-0.4,0.3-0.7,0.5c-0.1,0.1-0.2,0.1-0.4,0c-1.7-1.2-3.4-2.1-5.3-2.7
		c-1.1-0.3-3.9-1.2-5-1.2C4.4,26,4.4,26,4.3,26z M0.1,7c1,0.4,2.1,0.8,3.1,1.2c2,0.8,4.1,1.6,6.1,2.4c1.9,0.7,3.7,1.5,5.6,2.2
		c0.1,0,0.2,0,0.3,0c1.3-0.5,2.6-1,3.8-1.5c1.5-0.6,3.1-1.2,4.6-1.8c1.5-0.6,3.1-1.2,4.6-1.9c0.5-0.2,1.1-0.4,1.7-0.7
		c-0.1-0.1-0.2-0.1-0.3-0.2c-1.4-0.6-2.7-1.3-4.1-1.9c-1.7-0.8-3.4-1.6-5.1-2.4c-1.7-0.8-3.5-1.6-5.2-2.4C15.2,0,15,0,14.9,0
		c-1.3,0.6-2.5,1.1-3.8,1.7c-1.5,0.7-3,1.4-4.5,2C5.1,4.5,3.5,5.2,2,6C1.3,6.3,0.7,6.6,0,6.9C0.1,6.9,0.1,6.9,0.1,7z M30,26.3
		c0-2.1,0-4.2,0-6.3c0-0.5,0.1-1.1-0.6-1.5c0.8-0.6,0.8-1.2,0.1-1.6c-0.3-0.1-0.3-0.3-0.3-0.5c0-2.3,0-4.7,0-7c0-0.1,0-0.2,0-0.4
		c-0.3,0.2-0.6,0.3-0.9,0.5c-0.4,0.2-0.4,0.2-0.5,0.5c0,2.3,0,4.2,0,6.5c0,0.1-0.1,0.3-0.2,0.3c-0.7,0.4-0.9,0.9-0.4,1.4
		c0.1,0.1,0.2,0.2,0.3,0.3c-0.5,0.3-0.6,0.6-0.6,1c0,2.2,0,4.5,0,6.7c0,0.1,0,0.2,0,0.2c0,0.1,0.1,0.1,0.2,0.1c1,0,2,0,3,0
		C30,26.5,30,26.4,30,26.3z"/>
</g>
<g id="Calque_14" class="st0">
	<path class="st1" d="M19,19v-1h11c0,0,0,0,0,0c0,4.2,0,5.4,0,9.7c0,1.7-0.3,2.3-2,2.3c-8,0.1-17.4,0-26,0c-1.5,0-2-0.7-2-2.3
		c0-3.7,0-4.4,0-8.2c0-0.2,0-1.3,0-1.5h11v1c0,0.6,0.4,1,1,1h6C18.6,20,19,19.6,19,19z"/>
	<path class="st1" d="M30,16c-3.1,0-11,0-11,0v-2h-8l0,2c0,0-7.3,0-11,0c0-0.1,0-0.2,0-0.3c0-1.6,0-5.1,0-6.7c0-1,0.5-1.7,1.4-2
		C1.6,7,1.8,7,2,7c8.7,0,17.4,0,26,0c1.2,0,2,0.7,2,1.9c0,1.6,0,5.3,0,6.9C30,15.9,30,15.9,30,16z"/>
	<path class="st1" d="M24,0c0,0.9,0,3.1,0,4c-0.9,0-2.6,0-3.5,0V2.4h-11c0,0.8,0,0.8,0,1.6C8.6,4,6.9,4,6,4c0-1,0-3,0-4H24z"/>
	<path class="st1" d="M9,0c4,0,8,0,12,0"/>
</g>
<g id="Calque_17" class="st0">
	<path class="st1" d="M23,2c1.7,0,3.3,0,5,0c0,7.7,0,15.3,0,23c-1.6,0-3.2,0-5,0C23,17.4,23,9.8,23,2z"/>
	<path class="st1" d="M0,30C0,19.9,0,10,0,0c0.8,0,2,0,3,0c0,9.1,0,17.7,0,27c9.3,0,17.8,0,27,0c0,0.9,0,2.2,0,3
		C20.1,30,10.1,30,0,30z"/>
	<path class="st1" d="M19,25c-1.7,0-3.3,0-5,0c0-4,0-8,0-12c1.6,0,3.3,0,5,0C19,16.9,19,20.9,19,25z"/>
	<path class="st1" d="M5,25c0-1.7,0-3.3,0-5c1.7,0,3.3,0,5,0c0,1.6,0,3.3,0,5C8.4,25,6.7,25,5,25z"/>
	<path class="st1" d="M20,8c-0.9-0.8-1.5-1.4-2.3-2.2C14,9.6,10.4,13.2,6.7,17C6.3,16.6,5,14.9,5,14.9c4.7-5.1,6.2-6.3,10.9-11
		c-0.3-0.3-1-1-2-1.9c2.1,0,4,0,6,0C20,3.9,20,5.8,20,8z"/>
</g>
<g id="Calque_30" class="st0">
	<path class="st1" d="M0,30c0.1-0.7,0.3-5,0.4-5.8c0.3-1.3,0.7-2.6,1.1-3.8c0.3-0.9,1-1.5,2-1.6c0.3,0,0.6-0.1,0.8-0.2
		c1.6-0.5,3.2-1,4.9-1.5c0.4-0.1,0.7-0.4,1.1-0.6c0.1-0.1,0.3-0.2,0.4-0.3c-0.1,0.8-0.1,1.6-0.1,2.4c0,0.7,0,1.4,0.1,2.1
		c0,0.4,0.2,0.8,0.3,1.2c0.6,1.6,1.3,3.1,2,4.6c0,0,0,0,0.1,0.1c0-0.3,0.1-0.6,0.1-0.9c0.1-0.9,0.1-1.7,0.2-2.6
		c0-0.2,0.2-0.4,0.3-0.7c0.2-0.3,0.3-0.7,0.5-0.9c-0.3-0.3-0.5-0.6-0.8-0.9c-0.1-0.1-0.1-0.2,0-0.3c0.4-0.4,0.8-0.8,1.2-1.3
		c-0.3-0.3-0.6-0.6-1-0.9c-0.7-0.6-1.3-1.2-2-1.8c-0.2-0.2-0.3-0.4-0.2-0.6c0.1-0.9,0.2-1.7,0.2-2.6c0,0,0-0.1,0-0.1
		c-0.4-0.8-0.7-1.5-0.9-2.4c0,0,0-0.1,0-0.1c-0.3,0.1-0.4,0-0.5-0.3C10,10.1,9.9,9.8,9.8,9.5C9.7,9,9.5,8.4,9.6,7.9
		c0-0.1,0-0.2,0-0.2C9.6,7.4,9.7,7.3,10,7.3c0-0.3,0-0.6-0.1-0.9c-0.1-0.7-0.1-1.4-0.2-2c-0.1-0.6,0.1-1.1,0.5-1.6
		c0.1-0.1,0.2-0.2,0.3-0.3c0.2-0.1,0.3-0.3,0.4-0.5c0.2-0.8,0.8-1.2,1.5-1.4c0.3-0.1,0.6-0.2,0.9-0.2L14.6,0c0.7,0,1.4,0,2,0.2
		c0.9,0.2,1.7,0.7,2.3,1.3c0.2,0.2,0.3,0.3,0.3,0.6c0,0.1,0.1,0.2,0.1,0.2C19.8,2.3,20,2.6,20.1,3c0.2,0.6,0.2,1.2,0.2,1.8
		c-0.1,0.8-0.2,1.7-0.2,2.5c0,0,0,0.1,0,0.1c0.3,0,0.4,0.1,0.4,0.4c0,0.5-0.1,1-0.2,1.4c-0.1,0.4-0.2,0.8-0.4,1.2
		c-0.1,0.3-0.2,0.3-0.5,0.3c-0.1,0.7-0.3,1.3-0.6,1.9c-0.1,0.1-0.1,0.2-0.2,0.3c-0.1,0.2-0.1,0.4-0.1,0.7c0.1,0.7,0.1,1.4,0.2,2.1
		c0,0.1,0,0.2,0,0.3c0,0.2-0.1,0.4-0.3,0.5c-1,0.9-1.9,1.7-2.9,2.6c0,0,0,0-0.1,0.1c0.2,0.2,0.4,0.5,0.6,0.7
		c0.2,0.2,0.4,0.4,0.6,0.6c0.1,0.1,0.1,0.2,0,0.3c-0.3,0.3-0.5,0.6-0.8,0.8c0.1,0.2,0.2,0.4,0.3,0.6c0.4,0.6,0.5,1.2,0.5,1.9
		c0,0.6,0.1,1.3,0.2,1.9c0,0.2,0,0.4,0.1,0.6c0,0,0,0,0,0c0.1-0.2,0.2-0.4,0.3-0.6c0.7-1.4,1.3-2.9,1.8-4.4c0.1-0.4,0.2-0.8,0.3-1.2
		l0-1.3c0-0.6,0-1.3,0-1.9c0-0.3-0.1-0.7-0.1-1c0.2,0.1,0.4,0.3,0.6,0.4c0.5,0.4,1.1,0.5,1.6,0.7c1.2,0.4,2.5,0.7,3.7,1.1
		c0.4,0.1,0.7,0.2,1.1,0.3c0.1,0,0.2,0,0.3,0.1c0.9,0.2,1.5,0.7,1.8,1.5c0.6,1.7,1,3.4,1.4,5.1c0.1,0.3,0.1,4.2,0.2,4.5H0z"/>
</g>
<g id="Calque_32" class="st0">
	<path class="st1" d="M4.2,30c-1,0-1.9,0-2.8,0c-0.1,0-0.2-0.1-0.3-0.2c-1-1.1-1.3-2.4-0.9-3.8c1-3.5,2-7,3.1-10.5
		c0.5-1.6,1.8-2.6,3.5-2.6c1.1,0,2.2,0,3.2,0c0.2,0,0.4,0.1,0.5,0.3c0.7,1.2,1.4,2.4,2.2,3.7c0.8-1.3,1.6-2.6,2.3-4
		c0.8,1.3,1.6,2.6,2.3,4c0.6-1.1,1.3-2.1,1.9-3.2c0.3-0.6,0.7-0.8,1.3-0.8c1,0.1,2,0,3,0c1.5,0,2.9,1,3.3,2.6c1,3.5,2,7,3,10.5
		c0.4,1.4,0.1,2.7-0.9,3.8c-0.1,0.1-0.3,0.2-0.4,0.2c-0.8,0-1.7,0-2.5,0c-0.1,0-0.1,0-0.2,0c0-0.1,0-0.3,0-0.4c0-2.8,0-5.6,0-8.4
		c0-1.4-0.9-2.3-2.3-2.3c-5.6,0-11.3,0-16.9,0c-1.5,0-2.4,0.9-2.4,2.3c0,2.8,0,5.6,0,8.4C4.2,29.7,4.2,29.8,4.2,30z"/>
	<path class="st1" d="M6.1,30c0-0.1,0-0.2,0-0.4c0-2.8,0-5.6,0-8.4c0-0.5,0-0.5,0.5-0.5c5.6,0,11.2,0,16.9,0c0.5,0,0.5,0,0.5,0.5
		c0,2.8,0,5.6,0,8.4c0,0.1,0,0.2,0,0.4C18,30,12,30,6.1,30z"/>
	<path class="st1" d="M15,0c3.4,0,6.2,2.8,6.2,6.2c0,3.4-2.8,6.2-6.2,6.2c-3.4,0-6.2-2.8-6.2-6.2C8.8,2.8,11.6,0,15,0z"/>
	<path class="st4" d="M30,28c0,0.7,0,1.3,0,2c-10,0-20,0-30,0c0-0.7,0-1.3,0-2C10,28,20,28,30,28z"/>
</g>
<g id="Calque_33" class="st0">
	<path class="st1" d="M5.4,30c-1-0.5-1.4-1.3-1.4-2.4c0-6.8,0-13.5,0-20.3C4,5.9,4.6,5,6,5c0.6,0,1.3,0,2,0c0-0.8,0-1.2,0-2
		c1,0,2.1,0,3,0c0.3,0,0.5-0.3,0.6-0.6C12.2,0.9,13.5,0,15,0c1.5,0,2.8,0.9,3.4,2.4C18.5,2.7,18.7,3,19,3c0.9,0,2,0,3,0
		c0,0.8,0,1.2,0,2c0.8,0,1.3,0,2,0c1.2,0,2,0.9,2,2.2c0,6.8,0,13.6,0,20.4c0,1.1-0.3,2-1.4,2.4C18.2,30,11.8,30,5.4,30z M7,8
		c0,7.1,0,12,0,19c6.1,0,10,0,16,0c0-7,0-12,0-19c-0.8,0-0.2,0-1,0c0,0.8,0,1.3,0,2c-4.6,0-9.4,0-14,0c0-0.8,0-1.2,0-2H7z M17,5
		c0-0.4-0.2-1-0.2-1.3C16.8,2.7,16,3,15,3c-1,0-1.8-0.3-1.8,0.7C13.2,4,13,4.6,13,5c-1.1,0-2,0-3,0c0,1,0,1.1,0,2c3.4,0,6.7,0,10,0
		c0-0.9,0-1.1,0-2C18.9,5,18.1,5,17,5z"/>
	<path class="st1" d="M13,25c-1.7-1.5-3.3-3-5-4.5c0.5-0.5,0.9-1.1,1.4-1.6c1.1,1,2.3,2,3.4,3.1c2.6-3,5.1-5.9,7.7-8.9
		c0.5,0.5,1,0.9,1.6,1.4C19,18,16,21.5,13,25z"/>
</g>
<g id="Calque_34" class="st0">
	<path class="st1" d="M15,1L0,7v4h30V7L15,1z M15,9c-0.7,0-1.4-0.4-1.7-1C13.1,7.7,13,7.4,13,7c0-1.1,0.9-2,2-2s2,0.9,2,2
		c0,0.4-0.1,0.7-0.3,1C16.4,8.6,15.7,9,15,9z"/>
	<path class="st1" d="M0,29c0-0.7,0-1.3,0-2c10,0,20,0,30,0c0,0.6,0,1.3,0,2C20,29,10.1,29,0,29z"/>
	<path class="st1" d="M10,13c1.4,0,2.6,0,4,0c0,3.7,0,7.3,0,11c-1.3,0-2.6,0-4,0C10,20.3,10,16.7,10,13z"/>
	<path class="st1" d="M16,13c1.4,0,2.6,0,4,0c0,3.7,0,7.3,0,11c-1.3,0-2.6,0-4,0C16,20.4,16,16.7,16,13z"/>
	<path class="st1" d="M22,24c0-3.7,0-7.3,0-11c1.3,0,2.6,0,4,0c0,3.7,0,7.3,0,11C24.7,24,23.4,24,22,24z"/>
	<path class="st1" d="M2,28c0-0.7,0-1.3,0-2c8.7,0,17.3,0,26,0c0,0.7,0,1.3,0,2C19.4,28,10.7,28,2,28z"/>
	<path class="st1" d="M4,13c1.4,0,2.6,0,4,0c0,3.7,0,7.3,0,11c-1.3,0-2.6,0-4,0C4,20.3,4,16.7,4,13z"/>
</g>
<g id="Calque_35" class="st0">
	<path class="st1" d="M29.8,14.4c-0.3,0-0.6,0-0.9,0c-0.1,0-0.1,0-0.1-0.1c0-0.2,0-0.3,0-0.5c0-0.3-0.1-0.6-0.1-0.8
		c0-0.1,0-0.1,0-0.2c-0.2-1-0.4-2-0.8-2.9c-0.6-1.5-1.4-2.8-2.5-4c-0.9-1-2-1.9-3.2-2.6c-1.9-1.2-4-1.8-6.3-1.9
		c-0.1,0-0.2,0-0.1-0.2c0-0.3,0-0.6,0-1c0-0.1,0-0.2-0.2-0.1c-0.2,0-0.5,0-0.7,0c-0.1,0-0.2,0-0.4,0c0,0.4,0,0.7,0,1.1
		c0,0.1,0,0.2-0.2,0.2c-0.5,0-1,0.1-1.6,0.2c0,0-0.1,0-0.1,0.1c-0.1,0-0.1,0-0.2,0c-0.9,0.2-1.8,0.4-2.6,0.8
		C8.6,2.8,7.6,3.4,6.6,4.1C5.8,4.8,5,5.5,4.3,6.4C3.4,7.5,2.7,8.7,2.2,10c-0.3,0.8-0.5,1.5-0.7,2.3c0,0.2,0,0.4-0.1,0.5
		c0,0,0,0.1-0.1,0.1c0,0.4-0.1,0.8-0.1,1.2c0,0.1,0,0.2-0.2,0.2c-0.4,0-0.7,0-1.1,0c0,0.4,0,0.7,0,1.1c0,0.1,0,0.1,0.2,0.1
		c0.3,0,0.6,0,0.9,0c0.1,0,0.1,0,0.1,0c0.1,0.5,0.1,1.1,0.2,1.6c0,0.1,0.1,0.2,0.1,0.3c0,0,0,0.1,0,0.1c0.2,0.9,0.4,1.8,0.8,2.6
		c0.6,1.3,1.3,2.6,2.2,3.7c1,1.1,2.1,2.1,3.4,2.9c1.3,0.8,2.6,1.3,4,1.6c0.3,0.1,0.7,0.1,1,0.2c0.1,0,0.1,0,0.2,0
		c0.4,0,0.7,0.1,1.1,0.1c0.1,0,0.2,0,0.1,0.2c0,0.3,0,0.6,0,0.9V30c0.4,0,0.7,0,1.1,0c0.1,0,0.2,0,0.1-0.1c0-0.3,0-0.6,0-1
		c0-0.1,0-0.1,0.1-0.2c0.5,0,1-0.1,1.5-0.2c1-0.2,2-0.4,2.9-0.8c1.8-0.7,3.3-1.8,4.6-3.1c0.8-0.8,1.4-1.6,2-2.6
		c0.8-1.3,1.3-2.6,1.6-4c0-0.2,0.1-0.4,0.1-0.6c0,0,0-0.1,0.1-0.1c0.1-0.5,0.1-1,0.2-1.5c0-0.2,0.1-0.2,0.2-0.2c0.3,0,0.6,0,0.9,0
		c0.1,0,0.1,0,0.2,0v-1.2H29.8z M18.1,14.4v1.2l0,0c0,0,0,0,0,0c3.2,0,5,0,8.1,0c-0.2,2.7-1.1,5-2.9,7c-2.1,2.2-4.7,3.4-7.7,3.7
		l0-0.5c0-3.3,0-4.8,0-8.1c0,0,0,0,0-0.1l-1.2,0c0,3.3,0,4.8,0,8l0,0.7c-2.6-0.2-4.9-1.1-6.8-2.8c-2.3-2.1-3.6-4.7-3.8-7.8
		c3.2,0,5,0,8,0h0.1v-1.2c-0.1,0,0,0-0.1,0c-2.9,0-4.3,0-7.4,0c0,0,0,0,0,0l-0.7,0c0.1-2.4,1-4.6,2.5-6.5c2.5-3.1,5.9-4.1,8.2-4.2
		l0,0.6c0,0,0,0,0,0c0,0,0,0,0,0c0,3,0,4.6,0,7.5h1.2v-0.1c0-3.1,0-4.3,0-7.4V4.1l0-0.3c2.4,0.1,4.6,1,6.4,2.5
		c3,2.4,4.1,5.7,4.2,8.2c-0.2,0-0.3,0-0.5,0c-3.1,0-4.4,0-7.4,0 M24,30c0,0,0-0.1,0-0.1c0-0.6,0-1.2,0-1.7c0-0.1,0-0.1,0.2-0.1
		c1.2,0,2.4,0,3.6,0c0.1,0,0.1,0,0.2,0c0-0.1,0-0.1,0-0.2c0-1.2,0-2.4,0-3.7c0-0.1,0-0.2,0.2-0.2c0.6,0,1.2,0,1.7,0c0,0,0.1,0,0.1,0
		c0,0,0,0.1,0,0.1c0,1.9,0,3.8,0,5.7c0,0.1,0,0.1-0.1,0.1c-1.9,0-3.8,0-5.7,0C24.1,30,24.1,30,24,30z M2,24c0,0.1,0,0.1,0,0.2
		c0,1.2,0,2.4,0,3.7C2,28,2,28,2.2,28c1.2,0,2.5,0,3.7,0c0,0,0.1,0,0.1,0c0,0,0,0.1,0,0.1c0,0.6,0,1.2,0,1.8C6,30,6,30,5.9,30
		C4,30,2,30,0.1,30c0,0-0.1,0-0.1,0c0,0,0-0.1,0-0.1c0-1.9,0-3.8,0-5.7C0,24.1,0,24,0.1,24C0.7,24,1.4,24,2,24z M28,2
		c-1.3,0-2.6,0-4,0c0,0,0-0.1,0-0.1c0-0.6,0-1.2,0-1.8C24,0,24,0,24.1,0c1.9,0,3.8,0,5.7,0C30,0,30,0,30,0.2c0,1.9,0,3.8,0,5.7
		C30,6,30,6,29.8,6c-0.6,0-1.2,0-1.7,0C28,6,28,6,28,5.9c0-1.2,0-2.5,0-3.7C28,2.1,28,2.1,28,2z M2,2c0,0.1,0,0.1,0,0.2
		c0,1.2,0,2.4,0,3.6C2,6,2,6,1.9,6C1.3,6,0.7,6,0.1,6C0,6,0,6,0,5.9C0,4,0,2,0,0.1c0,0,0-0.1,0-0.1c0,0,0.1,0,0.1,0C2,0,3.9,0,5.9,0
		C6,0,6,0,6,0.1c0,0.6,0,1.2,0,1.8C6,2,6,2,5.9,2C4.6,2,3.4,2,2.1,2C2.1,2,2.1,2,2,2z M10,21.8c0.8,0.6,1.7,1,2.7,1.3
		c-0.1,0.4-0.2,0.8-0.3,1.2c-3.4-1.1-5.6-3.3-6.7-6.7c0.4-0.1,0.8-0.2,1.2-0.3c0.3,1.1,0.7,2,1.4,2.9C8.8,20.8,9,21,10,21.8z
		 M21.8,19.9c0.6-0.8,1-1.7,1.3-2.7c0.4,0.1,0.8,0.2,1.2,0.3c-1.1,3.4-3.3,5.6-6.7,6.7c-0.1-0.4-0.2-0.8-0.3-1.2
		c1.1-0.3,2-0.7,2.9-1.4C20.7,21.2,21,21,21.8,19.9z M19.9,8.5c-0.8-0.6-1.7-1-2.7-1.3c0.1-0.4,0.2-0.8,0.3-1.2
		c3.4,1.1,5.6,3.3,6.7,6.7c-0.4,0.1-0.8,0.2-1.2,0.3c-0.3-1.1-0.7-2-1.4-2.9C21.2,9.5,21,9.3,19.9,8.5z M8.2,10.4
		c-0.6,0.8-1,1.7-1.3,2.7c-0.4-0.1-0.8-0.2-1.2-0.3C6.8,9.3,9,7.1,12.4,6c0.1,0.4,0.2,0.8,0.3,1.2c-1.1,0.3-2,0.7-2.9,1.4
		C9.2,9.1,9,9.3,8.2,10.4z M15,13.5c0.8,0,1.5,0.7,1.5,1.5s-0.7,1.5-1.5,1.5s-1.5-0.7-1.5-1.5S14.2,13.5,15,13.5z"/>
</g>
<g id="Calque_36" class="st0">
	<path class="st1" d="M24.7,7.6c-0.7-0.1-1.4-0.1-2-0.3c-0.2-0.1-0.2-0.6-0.3-0.9c0.3-0.1,0.6-0.3,0.9-0.3c0.2,0,0.7,0.1,0.7,0
		c0.4-0.6,1-1.2,1.1-1.9c0.1-0.4-0.7-0.9-1.1-1.4c-0.1-0.1-0.2-0.1-0.2-0.1c-0.5-0.3-0.8-0.2-1.1,0.4c-0.4,0.7-1.1,1.3-1.7,1.9
		c-0.3,0.3-0.9,0.4-1.1-0.2c-0.1-0.3,0.2-0.7,0.4-1c0.4-0.6,1-1.1,1.5-1.7c-1.7-1.8-3.5-2.7-5.7-1.8c-0.2,0.1-0.6,0.4-0.5,0.7
		c0,0.8,0.1,1.6,0.3,2.3c0.1,0.3,0.8,0.4,1.1,0.7c0.2,0.1,0.4,0.5,0.4,0.7c-0.1,0.3-0.4,0.5-0.6,0.6c-0.1,0.1-0.4,0-0.6,0
		c-0.3,1.5-0.9,2.6-2.3,2.9c-0.5,0.1-1,0.2-1.1-0.5c-0.1-0.7,0.3-0.8,0.8-0.9c0.8-0.2,1.3-1,1.2-1.9C14.5,3.4,14.2,2,14,0.5
		c-0.8-0.3-4,0.2-4.7,0.9c0,0,0,0.1-0.1,0.1c0.3,0.7,0.5,1.4,0.9,2C10.2,3.8,10.5,4,10.7,4c0.5,0,1,0,1,0.7c0,0.7-0.6,0.7-1.1,0.7
		c-0.2,0-0.4,0-0.6-0.1C9.5,5,9.1,5.3,8.6,5.5C8.3,5.7,7.7,5.6,7.5,5.4c-0.3-0.5,0-0.8,0.4-1.1C8.8,3.8,8.8,3.5,8,2.2
		C7.5,1.4,7.1,2.1,6.7,2.3C6.1,2.7,5.5,3.2,4.9,3.5c-1.6,0.7-2.4,2-3,3.7c0,0.1-0.1,0.3,0,0.4c0.2,0.5,1.7,1,2.5,0.8
		c0.8-0.2,0.5-0.8,0.6-1.3c0-0.2,0-0.4,0-0.5C5.1,6.3,5.4,6,5.6,6c0.2,0,0.5,0.4,0.6,0.7c0.1,0.3,0.1,0.7,0.1,1
		c1.4-0.2,2.6,0,3.5,1.1C10,9.1,10,9.7,9.9,9.9c-0.3,0.5-0.7,0.3-1-0.1c-0.8-0.9-1.7-1-2.7-0.6c-1.9,0.8-3.7,0.9-5.3-0.6
		c-0.9,0.8-1.1,1.6-0.9,2.7c0.7,0.2,1.4,0.4,2,0.7c0.2,0.1,0.3,0.7,0.4,1c-0.3,0.1-0.6,0.2-1,0.2c-0.4,0-0.8-0.2-1.2-0.3
		c-0.7,3.6,0.8,4.7,3,4.4c0.3,0,0.7,0,0.9,0.1c1,0.8,2.1,0.7,3.3,0.5c0.1-1.2,0.6-2.1,1.7-2.4c0.3-0.1,0.7,0.2,1,0.3
		c-0.1,0.3-0.3,0.7-0.5,1C9.7,17,9.4,17,9.3,17.1c-0.4,0.4-0.6,0.9,0,1.3c1.4,1,2.9,1.5,4.6,1.2c0-0.4,0-0.8,0-1.1
		c-0.1-1.2,0.4-2.1,1.2-2.7c0.3-0.2,0.8-0.2,1-0.1c0.4,0.4,0.2,0.8-0.2,1.2c-0.2,0.1-0.3,0.3-0.4,0.4C14.9,18,15,19.7,15.5,20
		c1.2,0.7,2.3,0.5,3.2-0.4c-0.1-0.9-0.2-1.7-0.1-2.5c0-0.3,0.5-0.5,0.8-0.7c0.1,0.3,0.4,0.6,0.4,1c0.1,0.4,0.1,0.9,0.1,1.4
		c0.1,0,0.2,0.1,0.3,0.1c0.4-0.3,1-0.6,1.3-1c0.6-0.8,1.2-0.9,2-0.3c0.1,0.1,0.3,0.1,0.4,0.2c0.9,0.3,1.2,0.1,1.1-0.9
		c-0.1-0.8-0.1-1.5,0.5-2c0.2-0.2,0.6-0.1,0.9-0.2c0,0.3,0.2,0.7,0.1,1c0,0.5-0.2,1.1-0.3,1.7c1.3-0.1,2.5,0.1,3.3-1
		c0.8-1,0.4-2.2,0.2-3.4c-0.2,0-0.3,0-0.5,0c-0.7-0.1-1.5-0.1-2.1-0.3c-0.3-0.1-0.4-0.6-0.6-0.9c0.3-0.1,0.7-0.3,1-0.4
		c0.3,0,0.7,0.2,1,0.2c0.4,0,1.2-0.2,1.3-0.4c0.1-0.6,0-1.3-0.2-1.9c0-0.2-0.4-0.3-0.5-0.6c-0.3-0.5-0.8-1-0.9-1.5
		c-0.3-1.1-0.9-1.6-1.9-1.8C26.1,5.3,26,5.4,26,5.4c-0.4,0.8,0,1.4,0.3,2.1c0.1,0.3-0.1,0.7-0.1,1.1c-0.3-0.1-0.7-0.1-0.9-0.3
		L24.7,7.6z M10.1,13.1c-0.9,1.5-2.6,2-4,1.3c-0.8,0.6-1.5,1.2-2.3,1.8c-0.2,0.1-0.6,0.1-0.7,0c-0.2-0.2-0.3-0.7-0.1-0.9
		c0.4-0.5,0.8-0.9,1.3-1.2c0.6-0.3,0.9-0.7,1-1.5c0-0.3,0.4-0.6,0.6-0.9c0.3,0.3,0.6,0.5,0.8,0.8c0.4,1,0.7,1.1,1.5,0.6
		c0.4-0.3,0.7-0.7,1.1-0.9c0.2-0.1,0.7-0.1,0.8,0C10.2,12.3,10.2,12.8,10.1,13.1z M18.8,12.7c-0.5,0-0.9-0.3-1.4-0.4
		c-0.5,0.8-1.1,1.6-2.2,1.4c-0.3-0.1-0.8-0.4-0.9-0.7c-0.1-0.5,0.3-0.7,0.9-0.7c0.7,0,1.1-0.7,1-1.5C16.1,10.2,16,9.6,16,9.1
		c0-0.3,0.4-0.5,0.6-0.8c0.2,0.2,0.6,0.5,0.6,0.7c-0.1,1.5,0.6,2.1,1.9,2.4c0.2,0,0.4,0.6,0.6,0.9C19.4,12.4,19.1,12.7,18.8,12.7z
		 M24.3,14.4C24.3,14.4,24.2,14.4,24.3,14.4c-1-0.5-1.8-0.2-2.5,0.5c-0.2,0.1-0.6-0.1-0.9-0.1c0.1-0.3,0.1-0.8,0.2-1
		c0.2-0.3,0.6-0.5,0.9-0.8c0.7-0.7,0.6-1.2-0.1-1.8c-0.2-0.2-0.4-0.2-0.5-0.4c-0.2-0.3-0.5-0.8-0.4-1c0.2-0.6,0.7-0.4,1.1-0.2
		c1.1,0.7,2,1.6,1.6,3.3c0.3,0.1,0.6,0.1,0.8,0.2c0.2,0.2,0.4,0.5,0.5,0.8C24.8,14,24.6,14.2,24.3,14.4z M26.3,19.3
		c-0.3,0-0.6,0.3-0.9,0.4c-0.7,0-1.3,0-2,0c-0.2,0-0.4-0.2-0.6-0.1c-1.6,0.5-2.3,2.2-1.7,3.9c0.4,1.1,1.1,1.6,2.2,1.3
		c2.2-0.6,4-2.1,5.4-4.1c0.3-0.3,0.2-1,0.3-1.6C27.9,19.2,27.1,19.2,26.3,19.3z M21.4,28.8c-0.6-1.1-1.1-2.3-1.6-3.4
		c-0.3-0.7-0.6-1.5-0.8-2.3c-0.1-0.4-0.1-0.8-0.1-1.3c-1.5,1-3,0.8-4.4,0.1c-0.3-0.2-0.8-0.1-1.3-0.1c0.2,0.7,0.3,1.1,0.4,1.6
		c0.4,1.6,1.2,2.8,2.7,3.5c0.9,0.5,1.7,1.4,2.4,2.3c0.7,0.9,1.4,1.1,2.4,0.6C21.5,29.5,21.7,29.3,21.4,28.8z"/>
</g>
<g id="Calque_37" class="st0">
	<path class="st1" d="M14.7,12.5C14.7,12.4,14.7,12.4,14.7,12.5C14.7,12.4,14.7,12.4,14.7,12.5C14.7,12.4,14.7,12.4,14.7,12.5
		 M20.5,18.7C20.5,18.7,20.5,18.7,20.5,18.7C20.5,18.7,20.5,18.7,20.5,18.7C20.5,18.7,20.5,18.7,20.5,18.7 M20.6,18.8
		c0,0-0.1,0-0.1,0C20.4,18.8,20.5,18.8,20.6,18.8 M15,0C6.7,0,0,6.7,0,15c0,8.3,6.7,15,15,15c8.3,0,15-6.7,15-15C30,6.7,23.3,0,15,0
		 M24.6,5.9c-0.5,0-0.9,0-1.3,0.3c-0.2,0.1-0.3,0.3-0.5,0.3c-0.2,0.1-0.4,0-0.6,0.1c-0.7,0.2-0.6,1.7-1.5,1.5
		c-0.4-0.1-0.7-0.6-0.9-0.9c-0.2-0.3-0.5-0.5-0.3-0.9c-0.1,0-0.2,0-0.3,0c0.1-0.3,0.6-0.3,0.7-0.4c0.2-0.4-0.6-0.4-0.8-0.5
		c0.3-0.3,0.4,0.1,0.6,0c0.2-0.1-0.1-0.4-0.3-0.4c-0.1,0-0.9,0.2-0.4-0.2c-0.6-0.4-1.2-0.8-1.8-1.2c-0.1,0.4,0.8,0.7,1.1,0.8
		c0,0.2-0.3,0.4-0.5,0.4c-0.2-0.1-0.1-0.4-0.4-0.4c-0.2,0.5,0.5,0.4,0.5,0.7c0.1,0.4-0.3,0.2-0.4,0.2c0,0-0.3-0.2-0.3-0.1
		c0,0.2,0.4,0.1,0.4,0.4c-0.5,0-0.7-0.1-1.1-0.4c-0.4-0.3-0.6-0.3-1.2-0.3c0.2-0.1,0.4-0.1,0.5-0.2c0.1-0.1,0.4-0.3,0.4-0.4
		c0.1-0.3,0-0.2-0.3-0.4c-0.2-0.2-0.5-0.4-0.8-0.5c-1-0.2-0.3,0.9-1.1,1.1c0,0,0,0,0,0h0c0,0,0,0,0,0c-0.2,0-0.5,0-0.6,0
		c-0.1,0.1-0.1,0.3-0.2,0.4C13.2,5,13,5.1,12.8,5.2c-0.2,0.1-0.6,0.4-0.7,0.6c-0.4,0.8,0.9,1,1.4,1.2c0.2,0.1,0.9,0.2,1,0.4
		c0.2,0.2-0.1,0.4,0.2,0.6c0.1,0.1,0.3,0.1,0.4,0c0.2-0.2-0.1-0.2-0.1-0.4c-0.1-0.4,0-0.2,0.2-0.4c0.4-0.3,0.3-0.3,0.2-0.8
		c-0.1-0.2-0.3-0.8-0.1-1c0.3-0.2,0.9,0.1,1.1,0.1c0.3,0,0.4,0.4,0.5,0.5c0.1,0.1,0.3,0.3,0.4,0.3c0.3,0,0.1-0.3,0.3-0.4
		c0.4-0.3,0.5,0.1,0.7,0.5c0.1,0.4,0.3,0.5,0.6,0.7c0.1,0.1,0.7,0.5,0.6,0.7c0,0.2-0.7,0.4-0.8,0.4C18.1,8.6,17,8.1,16.9,9
		C17.1,9,17.8,8.4,18,8.7c0.1,0.1-0.1,0.3,0,0.4c0.1,0.3,0.4,0.2,0.7,0.2c0,0,0,0-0.1,0c0.4-0.2,0.3-0.2,0.5-0.5
		c0.1-0.1,0.1-0.4,0.2-0.4c0.3-0.3,0.3-0.1,0.5,0.1c0,0.1,0.5,0.7,0.3,0.6c-0.5-0.1-1-0.1-1.4,0.2c-0.2,0.2-0.5,0.4-0.7,0.5
		c-0.1,0-0.6,0.1-0.5,0c0.1-0.1,0.4-0.2,0.5-0.3c-0.3-0.1-0.6,0.2-0.9,0.3c-0.3,0.1-0.3,0.4-0.6,0.6c-0.1,0.1-0.3,0.1-0.4,0.2
		c-0.1,0.1-0.1,0.3-0.2,0.4c-0.1,0.1-0.2,0-0.3,0.1c-0.1,0.2,0.1,0.3,0,0.4c-0.1,0.2-0.4,0.4-0.6,0.5c0,0,0,0,0.1-0.1
		c-0.1,0.2-0.3,0.3-0.4,0.4c0.1,0.3,0.2,0.9,0.2,1c-0.2,0.5-0.5-0.2-0.6-0.4c-0.4-0.6-1.2-0.2-1.8-0.2c-0.7,0.1-1.4,1-1,1.8
		c0.2,0.4,0.6,0.5,1,0.4c0.4-0.1,0.5-0.6,0.8-0.6c0.6,0,0,0.6,0,0.9c-0.1,0.2,0.1,0.2,0.3,0.3c0.2,0,0.4-0.1,0.5,0
		c0.1,0.1,0.1,0.4,0.2,0.3c-0.2,0.2-0.2,0.7,0.1,0.9c0.3,0.2,0.6,0,0.9,0.1c0.6,0.1,0.3,0,0.8-0.3c0.3-0.2,0.4,0,0.6,0
		c0.2,0,0.2-0.2,0.5-0.2c0.2,0.1,0.3,0.2,0.5,0.2c0.1,0,0.2,0,0.3,0c0.5,0.1,0.8,0.3,1.2,0.6c0.3,0.2,0.5,0.2,0.8,0.3
		c0.3,0.1,0.7,0.4,0.7,0.8c0,0.1-0.2,0.3-0.3,0.5c0.1,0,0.5-0.1,0.6-0.1c0,0.1-0.4,0.3-0.4,0.2c0,0.1,0.2,0.2,0.3,0.2
		c0.2-0.5,0.4-0.2,0.7-0.1c0.3,0.1,0.6,0.1,0.9,0.2c0.2,0.1,0.8,0.2,1,0.4c0.2,0.2,0.1,0.6-0.1,0.9c-0.2,0.3-0.5,0.4-0.7,0.8
		c-0.1,0.3,0,0.6-0.1,0.9c-0.1,0.4-0.1,0.3-0.4,0.6c-0.2,0.2,0,0.2-0.3,0.3c-0.3,0.1-0.6,0.1-0.8,0.5c0,0,0,0,0-0.1
		c-0.1,0.1-0.1,0.4-0.2,0.5c-0.1,0.2-0.3,0.4-0.4,0.6c-0.1,0.1-0.7,0.9-0.7,0.9c0-0.1-0.5,0.1-0.6,0c0,0.1,0,0.1,0.1,0.1
		c-0.1,0.7-0.4,0.8-1.1,0.8c0.1,0.3-0.3,0.3-0.4,0.5c-0.1,0.1-0.1,0.4-0.2,0.5c0,0.1-0.3,0.4-0.3,0.5c0,0.1,0.1,0.2,0.2,0.2
		c-0.5,0.1-1,0.2-1.5,0.2c0.1-0.1,0.1-0.2-0.2-0.2c0.1-0.2,0.3-0.3,0.4-0.6c0-0.1,0-0.1,0-0.2c0.1-0.3,0.1-0.2,0-0.5
		c-0.1-0.6,0.1-0.8,0.2-1.4c0.2-0.6,0.2-1.4,0.3-2c0.1-0.3,0.1-0.9,0-1.2c-0.1-0.3-0.6-0.6-0.9-0.8c-0.3-0.3-0.5-0.6-0.8-1
		c-0.1-0.2-0.3-0.4-0.4-0.6c-0.2-0.5,0-0.2,0-0.4c0-0.3,0-0.5,0.1-0.8c0.1-0.3,0.4-0.5,0.5-0.8c0.1-0.3,0-0.6-0.3-0.7
		c-0.2,0-0.3,0.1-0.5,0c-0.2,0-0.5-0.2-0.6-0.3c-0.2-0.2-0.3-0.5-0.6-0.6c-0.2-0.1-0.4-0.1-0.6-0.1c-0.2-0.1-0.4-0.4-0.6-0.4
		c-0.3-0.1-0.4,0.1-0.7,0c-0.3,0-0.6-0.3-0.9-0.4c-0.5-0.2-0.8-0.5-1-0.9c-0.2-0.4-0.4-0.6-0.7-1c-0.3-0.4-0.4-0.7-0.8-0.8
		c-0.1,0,0.1,0.4,0.1,0.4c0.2,0.3,0.4,0.6,0.6,0.8c0.3,0.4,0.2,0.5-0.1,0.1c-0.3-0.4-0.7-0.9-1-1.4c-0.1-0.2-0.1-0.3-0.3-0.5
		c-0.2-0.2-0.4-0.2-0.6-0.4C6.3,11,6.2,10.3,6.3,9.5c0-0.3,0.1-0.5,0.1-0.7c0-0.2-0.2-0.4-0.3-0.5C6,8.2,5.9,8,5.9,7.9
		C5.7,7.7,5.6,7.5,5.4,7.3C5.3,7.2,5,6.9,4.6,6.7C6,5,7.9,3.6,10,2.7c0,0.1,0.1,0.2,0.1,0.3c0.2,0.3,0.3,0.2,0.7,0.3
		c0,0.4-0.5,0.4-0.8,0.4C9.6,3.6,9.2,3.5,8.9,3.8c0.2,0.1,0.7,0.5,0.6,0.1c0.4,0,0.7,0,1,0c0.1,0,0.6,0.2,0.7,0.1
		c0.1,0,0.1-0.3,0.2-0.4c-0.1,0-0.2,0-0.3,0c0.2-0.3,0.5-0.1,0.8,0.1c-0.3,0.2-0.1,0.7,0.2,0.3c0.3-0.3-0.1-0.5-0.4-0.7
		c0.3-0.4,0.5-0.5,0.8,0c0.1-0.3,0.3-0.2,0.5-0.2V3C13,3,12.9,3,12.7,3c0.2-0.4,0.1-0.5,0.4-0.6c0.3-0.1,1.1,0,1.2-0.3
		c-0.6,0.1-1.2,0.1-1.8,0.4c-0.2,0.1-0.5,0.5-0.7,0.2c-0.2-0.2,0.2-0.6,0.4-0.7h0c0.9-0.2,1.8-0.3,2.8-0.3c0.6,0,1.2,0,1.8,0.1
		C16.6,2,16.8,2,16.6,2.1c-0.3,0.2-0.8,0.4-1.1,0.5c0.4,0,1.5,0.4,1.7-0.2c-0.1,0-0.3,0-0.4-0.1C17,2.2,17.3,2.1,17.6,2
		C20.3,2.5,22.8,3.9,24.6,5.9C24.6,5.9,24.6,5.9,24.6,5.9 M27,11.1c0-0.1,0.1-0.1,0.1-0.1c0.1-0.1,0-0.2,0.1-0.2
		c0.1-0.1,0.2-0.1,0.2-0.2c0,0,0-0.1,0.1-0.1c0.2,0.6,0.4,1.3,0.5,1.9c0,0,0,0,0,0c0,0-0.2,0.1-0.3,0.1c-0.2,0-0.3-0.1-0.4-0.2
		c-0.1-0.1-0.2-0.2-0.3-0.4c-0.1-0.1,0-0.3,0-0.4C27,11.4,27,11.2,27,11.1 M27.2,18c-0.3-0.2-0.6-0.5-0.7-0.8
		c-0.2-0.3-0.1-0.6-0.1-1c0-0.3-0.1-0.7,0-1c0.1-0.1,0.2-0.2,0.2-0.3c0.1-0.2,0.1-0.4,0.2-0.5c0.2-0.2,0.4-0.2,0.5-0.4
		c0.2-0.2,0.2-0.3,0.3-0.5c0.1-0.2,0.3-0.4,0.5-0.5c0.1,0.7,0.2,1.3,0.2,2c0,1.2-0.2,2.3-0.4,3.4C27.6,18.4,27.4,18.2,27.2,18"/>
</g>
<g id="Calque_38" class="st0">
	<path class="st1" d="M28.5,6.9l-5.3-5.3l-2.3,2.3c-0.7-0.3-1.3-0.6-2-0.8l0-3h-7.5l0,3c-0.7,0.2-1.4,0.5-2,0.8L6.9,1.5L1.5,6.9
		l2.3,2.3c-0.3,0.7-0.6,1.3-0.8,2l-3,0l0,7.5l3,0c0.2,0.7,0.5,1.4,0.8,2l-2.3,2.3l5.3,5.3l2.3-2.3c0.7,0.3,1.3,0.6,2,0.8l0,3h7.5
		l0-3c0.7-0.2,1.4-0.5,2-0.8l2.3,2.3l5.3-5.3l-2.3-2.3c0.3-0.7,0.6-1.3,0.8-2l3,0v-7.5l-3,0c-0.2-0.7-0.5-1.4-0.8-2L28.5,6.9z
		 M21.3,21.3c-3.5,3.5-9.1,3.5-12.5,0s-3.5-9.1,0-12.5s9.1-3.5,12.5,0S24.7,17.8,21.3,21.3z M13.3,7.7l0,1.8
		c-0.3,0.1-0.6,0.2-0.9,0.4L11,8.6L8.6,11l1.3,1.3c-0.2,0.3-0.3,0.6-0.4,0.9l-1.8,0l0,3.5l1.8,0c0.1,0.3,0.2,0.6,0.4,0.9L8.6,19
		l2.5,2.5l1.3-1.3c0.3,0.2,0.6,0.3,0.9,0.4l0,1.8l3.5,0l0-1.8c0.3-0.1,0.6-0.2,0.9-0.4l1.3,1.3l2.5-2.5l-1.3-1.3
		c0.2-0.3,0.3-0.6,0.4-0.9l1.8,0l0-3.5l-1.8,0c-0.1-0.3-0.2-0.6-0.4-0.9l1.3-1.3L19,8.6l-1.3,1.3c-0.3-0.2-0.6-0.3-0.9-0.4l0-1.8
		L13.3,7.7z M17.8,17.8c-1.5,1.5-4,1.5-5.6,0c-1.5-1.5-1.5-4,0-5.6s4-1.5,5.6,0C19.3,13.7,19.3,16.3,17.8,17.8z M21.4,11L19,8.6
		l-1.3,1.3c-0.3-0.2-0.6-0.3-0.9-0.4l0-1.8l-3.5,0l0,1.8c-0.3,0.1-0.6,0.2-0.9,0.4L11,8.6L8.6,11l1.3,1.3c-0.2,0.3-0.3,0.6-0.4,0.9
		l-1.8,0l0,3.5l1.8,0c0.1,0.3,0.2,0.6,0.4,0.9L8.6,19l2.5,2.5l1.3-1.3c0.3,0.2,0.6,0.3,0.9,0.4l0,1.8l3.5,0l0-1.8
		c0.3-0.1,0.6-0.2,0.9-0.4l1.3,1.3l2.5-2.5l-1.3-1.3c0.2-0.3,0.3-0.6,0.4-0.9l1.8,0l0-3.5l-1.8,0c-0.1-0.3-0.2-0.6-0.4-0.9L21.4,11z
		 M17.8,17.8c-1.5,1.5-4,1.5-5.6,0c-1.5-1.5-1.5-4,0-5.6s4-1.5,5.6,0C19.3,13.7,19.3,16.3,17.8,17.8z M21.4,11L19,8.6l-1.3,1.3
		c-0.3-0.2-0.6-0.3-0.9-0.4l0-1.8l-3.5,0l0,1.8c-0.3,0.1-0.6,0.2-0.9,0.4L11,8.6L8.6,11l1.3,1.3c-0.2,0.3-0.3,0.6-0.4,0.9l-1.8,0
		l0,3.5l1.8,0c0.1,0.3,0.2,0.6,0.4,0.9L8.6,19l2.5,2.5l1.3-1.3c0.3,0.2,0.6,0.3,0.9,0.4l0,1.8l3.5,0l0-1.8c0.3-0.1,0.6-0.2,0.9-0.4
		l1.3,1.3l2.5-2.5l-1.3-1.3c0.2-0.3,0.3-0.6,0.4-0.9l1.8,0l0-3.5l-1.8,0c-0.1-0.3-0.2-0.6-0.4-0.9L21.4,11z M17.8,17.8
		c-1.5,1.5-4,1.5-5.6,0c-1.5-1.5-1.5-4,0-5.6s4-1.5,5.6,0C19.3,13.7,19.3,16.3,17.8,17.8z"/>
</g>
<g id="Calque_39" class="st0">
	<g id="toolses_1_" class="st3">
		<path class="st4" d="M28.5,0c-1.4,0.9-2.7,1.6-3.4,3.1c-0.2,0.5-0.5,0.9-0.9,1.3c-3,3.1-10.1,10.3-13.1,13.3
			c-0.2,0.3-0.5,0.5-0.9,0.9C9.8,18,9.4,17.4,8.9,17c-0.2-0.3-0.9-0.3-1.1-0.1c-0.2,0.3-0.5,0.8-0.5,1.1c0,0.6-0.4,1.3-1,1.4
			c-0.5,0.1-1,0.4-1.4,0.6c-0.7,0.6-1.5,1.4-2.1,2.1c-2.1,2.1,0,0-2.1,2.1c-0.5,0.5-0.9,1.1-0.2,1.6c1.4,1.4,2.9,2.8,4.2,4.1h0.5
			c3.1-3,2-1.9,5-5c0.2-0.3,0.5-0.8,0.5-1.1c0.1-0.6,0.6-1,1.2-1.1c0.5,0,1.1-0.3,1.2-0.5c0.1-0.4-0.1-1-0.4-1.4
			c-0.2-0.4-0.7-0.8-1.2-1c0.1-0.3,0.2-0.4,0.2-0.4C15,16.3,22.5,8.8,25.9,5.4c0.2-0.1,0.4-0.3,0.5-0.4c1.9-0.5,2.6-2,3.5-3.4
			C29.5,1.1,29,0.5,28.5,0z M2.5,25.6c-0.2-0.3-0.2-0.5,0-0.8l3.4-3.4c0.1-0.1,0.2-0.1,0.4-0.1c0.1,0,0.2,0,0.4,0.1
			c0.2,0.3,0.2,0.5,0,0.8l-3.4,3.4C3.2,25.9,2.8,25.9,2.5,25.6z M8.5,24.1l-3.4,3.4c-0.2,0.3-0.5,0.3-0.7,0s-0.2-0.5,0-0.8l3.4-3.4
			c0.1-0.1,0.2-0.1,0.4-0.1c0.1,0,0.2,0,0.4,0.1C8.7,23.5,8.7,23.9,8.5,24.1z M7.5,0c0.1,0,0.2,0.1,0.4,0.1c3.9,0.9,6,4,5.5,7.9
			c0,0.4,0.1,0.8,0.4,1c1.2,1.4,0.6,0.6,2,2c-1.6,1.5-3,2.9-4.5,4.4c-1.1-1.1-0.4-0.4-1.4-1.5c-0.5-0.6-1-0.9-1.9-0.6
			c-4.7,0.9-8.5-2.8-8-7.5c0-0.1,0.1-0.4,0.2-0.6c1.1,1.1,2.1,2.1,3.1,3.3c0.4,0.4,0.7,0.5,1.4,0.4c1-0.4,2.2-0.4,3-1
			c0.6-0.6,0.6-1.9,1-2.9c0.2-0.6,0.1-1-0.4-1.4c-1.2-1-2.2-2.1-3.2-3.1C5.4,0.3,5.7,0.1,5.9,0C6.4,0,6.9,0,7.5,0z M29,24.5
			c-2.4-2.5-6.6-6.6-9.1-9.1c-0.4-0.4-0.6-0.5-0.9-1c-1.7,1.6-3,2.9-4.6,4.3c3,3,7.5,7.6,10.5,10.5c0.7,0.8,1.9,1,3,0.6
			C30.1,29.1,30.7,26.3,29,24.5z M27.1,28.6c-0.6,0-1.2-0.6-1.2-1.3s0.6-1.4,1.2-1.3c0.6,0,1.2,0.6,1.2,1.3S27.9,28.6,27.1,28.6z"/>
	</g>
</g>
<g id="Calque_42" class="st0">
	<path class="st1" d="M0,30c0.1-3.3,1-8.1,3-10c6.2-6,18.1-6.2,24,0c1.8,1.9,2.9,6.8,3,10C20,30,10,30,0,30z"/>
	<path class="st1" d="M30,19c-2.4-3.1-5-4.8-8.1-5.8c-0.4-0.1-0.9-0.6-0.9-1c0-0.4,0.4-1,0.7-1.2c1.7-1.3,5.8-1.3,7.4,0
		c0.4,0.3,0.8,0.9,0.8,1.4C30,14.4,30,16.4,30,19z"/>
	<path class="st1" d="M18.4,13h-6.7c-0.8,0-1.5-0.5-1.6-1c-0.3-3,0.4-5.1,2.2-5.6c1.7-0.4,3.5-0.5,5.2-0.1c1.8,0.4,2.7,2.4,2.4,5.7
		C19.9,12.5,19.2,13,18.4,13z"/>
	<path class="st1" d="M17.6,2.5C17.6,3.9,16.5,5,15,5c-1.4,0-2.6-1.1-2.6-2.5C12.4,1.1,13.6,0,15,0C16.5,0,17.6,1.1,17.6,2.5z"/>
	<path class="st1" d="M4.5,3C5.9,3,7,4.1,7,5.5C7,6.9,5.9,8,4.5,8C3.1,8,2,6.8,2,5.5C2,4.1,3.1,3,4.5,3z"/>
	<path class="st1" d="M25.4,3c1.4,0,2.5,1,2.6,2.4c0,1.4-1,2.5-2.4,2.6c-1.4,0-2.6-1-2.6-2.4C22.9,4.2,24,3,25.4,3z"/>
	<path class="st1" d="M0,19c2.4-3.1,5-4.8,8.1-5.8C8.5,13,9,12.5,9,12.2c0-0.4-0.4-1-0.7-1.2c-1.7-1.3-5.8-1.3-7.4,0
		c-0.4,0.3-0.8,0.9-0.8,1.4C0,14.4,0,16.4,0,19z"/>
</g>
<g id="Calque_43" class="st0">
	<path class="st1" d="M14.9,5.2c1.4-1.6,2.9-2.6,4.7-3.1c5.5-1.2,10.5,4.5,9.1,10.4c-0.8,3.7-3,6.3-5.4,8.7
		c-2.4,2.3-5.1,4.4-7.7,6.5c-0.2,0.2-0.8,0.3-1,0.1c-4.2-3-8.3-6.3-11.4-10.7c-1.9-2.7-2.8-5.7-1.9-9.1C3.1,1.9,10.2,0,14.5,4.5
		C14.6,4.7,14.7,4.9,14.9,5.2z"/>
</g>
<g id="Calque_41" class="st0">
	<path class="st1" d="M7.2,30C6.1,30,5,29,5,27c0-2.9,0-6.2,0-9.1C5,13.1,5,7.8,5,3c0-2,1.1-3,2.2-3h15.6C23.9,0,25,1,25,3
		c0,3.6,0,7.7,0,11.3c0,4.1,0,8.6,0,12.7c0,2-1.1,3-2.2,3L7.2,30z M21.7,29c1,0,2.2-1.1,2.2-2V3c0-1-1.1-2-2.2-2H8.3
		C7.2,1,6.1,2,6.1,3v24c0,1,1.2,2,2.2,2H21.7z"/>
	<path class="st1" d="M8,14c0-3.5,0-7,0-10.5C8,3,8,3,8.5,3c4.3,0,8.6,0,12.9,0C22,3,22,3,22,3.5c0,7,0,14,0,21c0,0.5,0,0.5-0.5,0.5
		c-4.3,0-8.6,0-12.9,0C8,25,8,25,8,24.5C8,21,8,17.5,8,14z"/>
	<path class="st1" d="M15,25.5c0.8,0,1.5,0.7,1.5,1.5c0,0.8-0.7,1.5-1.5,1.5c-0.8,0-1.5-0.7-1.5-1.5C13.5,26.2,14.2,25.5,15,25.5z
		 M16,27c0-0.5-0.5-1-1-1c-0.6,0-1,0.5-1,1c0,0.5,0.5,1,1,1C15.6,28,16,27.5,16,27z"/>
	<path class="st1" d="M15,2.5c-0.5,0-1.1,0-1.6,0c-0.1,0-0.2-0.3-0.4-0.5c0.1-0.2,0.2-0.5,0.3-0.5c1.1,0,2.2,0,3.3,0
		c0.1,0,0.2,0.3,0.3,0.5c-0.1,0.2-0.2,0.4-0.4,0.4C16.1,2.5,15.5,2.5,15,2.5z"/>
</g>
<g id="Calque_44" class="st0">
	<path class="st1" d="M1,28c1.8-5.1,3.4-9.9,5.2-14.6c0.3-0.7,1.3-1.3,2-1.3C14.7,12,21.4,12,28,12c1.8,0,2.4,1.1,1.7,3.1
		c-1.5,3.9-3,7.8-4.6,11.6c-0.2,0.6-1,1.2-1.6,1.2C16.2,28,8.8,28,1,28z"/>
	<path class="st1" d="M0,22C0,16.1,0,9.9,0,4c0-1.5,0.6-2,2-2c2,0,3,0,5,0c1.5,0,4,1.5,5.5,2.2C13.5,4.7,13.9,5,15,5
		c3.3,0,6.2,0,9,0c3,0,3,0.6,3,4c-1.6,0-3.4,0-5.1,0c-4.4,0-8.8,0.1-13.3,0c-2,0-3.2,0.5-4,2.4C3.3,14.9,1.4,19.5,0,23
		C-0.1,23,0.1,22,0,22z"/>
</g>
</svg>
